<?xml version="1.0" encoding="UTF-8"?>
<svg id="katman_1" data-name="katman 1" xmlns="http://www.w3.org/2000/svg" width="73.1" height="87.72" xmlns:xlink="http://www.w3.org/1999/xlink" viewBox="0 0 73.1 87.72">
  <defs>
    <style>
      .cls-1 {
        clip-path: url(#clippath-6);
      }

      .cls-2 {
        clip-path: url(#clippath-7);
      }

      .cls-3 {
        fill-rule: evenodd;
      }

      .cls-3, .cls-4 {
        fill: #f4e600;
      }

      .cls-5 {
        clip-path: url(#clippath-4);
      }

      .cls-6 {
        clip-path: url(#clippath-9);
      }

      .cls-7 {
        clip-path: url(#clippath-10);
      }

      .cls-8 {
        fill: #fff;
      }

      .cls-9 {
        fill: #0c682f;
      }

      .cls-10 {
        clip-path: url(#clippath-11);
      }

      .cls-11 {
        stroke-linejoin: bevel;
        stroke-width: .13px;
      }

      .cls-11, .cls-12, .cls-13, .cls-14, .cls-15, .cls-16, .cls-17, .cls-18, .cls-19 {
        fill: none;
      }

      .cls-11, .cls-14, .cls-15, .cls-17, .cls-18, .cls-19 {
        stroke: #010101;
      }

      .cls-20 {
        clip-path: url(#clippath-1);
      }

      .cls-21 {
        fill: #e52521;
      }

      .cls-13 {
        stroke: #231f20;
        stroke-width: .52px;
      }

      .cls-14 {
        stroke-width: .1px;
      }

      .cls-22 {
        clip-path: url(#clippath-5);
      }

      .cls-23 {
        clip-path: url(#clippath-8);
      }

      .cls-24 {
        clip-path: url(#clippath-3);
      }

      .cls-25 {
        clip-path: url(#clippath-12);
      }

      .cls-15 {
        stroke-width: .09px;
      }

      .cls-16 {
        stroke: #fff;
        stroke-width: .56px;
      }

      .cls-16, .cls-17, .cls-18 {
        stroke-linecap: round;
      }

      .cls-26 {
        fill: #010101;
      }

      .cls-17 {
        stroke-width: .1px;
      }

      .cls-17, .cls-18 {
        stroke-linejoin: round;
      }

      .cls-27 {
        fill: #1f3d8a;
      }

      .cls-28 {
        clip-path: url(#clippath-2);
      }

      .cls-18 {
        stroke-width: .11px;
      }

      .cls-29 {
        clip-path: url(#clippath-13);
      }

      .cls-30 {
        clip-path: url(#clippath);
      }

      .cls-19 {
        stroke-width: .09px;
      }
    </style>
    <clipPath id="clippath">
      <rect class="cls-12" x=".26" y=".26" width="72.58" height="87.2"/>
    </clipPath>
    <clipPath id="clippath-1">
      <rect class="cls-12" x=".26" y=".26" width="72.58" height="87.2"/>
    </clipPath>
    <clipPath id="clippath-2">
      <rect class="cls-12" x=".26" y=".26" width="72.58" height="87.2"/>
    </clipPath>
    <clipPath id="clippath-3">
      <rect class="cls-12" x=".26" y=".26" width="72.58" height="87.2"/>
    </clipPath>
    <clipPath id="clippath-4">
      <rect class="cls-12" x=".26" y=".26" width="72.58" height="87.2"/>
    </clipPath>
    <clipPath id="clippath-5">
      <rect class="cls-12" x=".26" y=".26" width="72.58" height="87.2"/>
    </clipPath>
    <clipPath id="clippath-6">
      <rect class="cls-12" x=".26" y=".26" width="72.58" height="87.2"/>
    </clipPath>
    <clipPath id="clippath-7">
      <rect class="cls-12" x=".26" y=".26" width="72.58" height="87.2"/>
    </clipPath>
    <clipPath id="clippath-8">
      <rect class="cls-12" x=".26" y=".26" width="72.58" height="87.2"/>
    </clipPath>
    <clipPath id="clippath-9">
      <rect class="cls-12" x=".26" y=".26" width="72.58" height="87.2"/>
    </clipPath>
    <clipPath id="clippath-10">
      <rect class="cls-12" x=".26" y=".26" width="72.58" height="87.2"/>
    </clipPath>
    <clipPath id="clippath-11">
      <rect class="cls-12" x=".26" y=".26" width="72.58" height="87.2"/>
    </clipPath>
    <clipPath id="clippath-12">
      <rect class="cls-12" x=".26" y=".26" width="72.58" height="87.2"/>
    </clipPath>
    <clipPath id="clippath-13">
      <rect class="cls-12" x=".26" y=".26" width="72.58" height="87.2"/>
    </clipPath>
  </defs>
  <rect class="cls-21" x=".26" y=".26" width="72.58" height="87.2"/>
  <rect class="cls-9" x=".26" y="53.27" width="72.58" height="34.19"/>
  <g class="cls-30">
    <path class="cls-3" d="M49.53,38.53c-.17,5.69-16.46,31.79-19.06,31.97l-2.4-1.44c3.76-2.59,19.61-29.27,19.04-31.89l2.42,1.36"/>
    <path class="cls-18" d="M49.53,38.53c-.17,5.69-16.46,31.79-19.06,31.97l-2.4-1.44c3.76-2.59,19.61-29.27,19.04-31.89l2.42,1.36"/>
    <path class="cls-3" d="M49.61,38.4c.17.1.18.28.14.62-.24,2.13-3.38,8.59-7.95,16.23-5.32,8.9-10.18,16.24-11.44,15.44l-.38-.22v-.04c2.16.72,10.86-14.5,11.42-15.39,5.45-8.8,8.64-16.23,7.81-16.88l.41.24h0ZM27.74,69.37c1.37.51,5.9-6.81,11.26-15.62,5.36-8.81,8.67-16.4,8.19-16.97-.06-.04-.48-.28-.48-.26.16.1.21.36.09.76-.69,2.38-3.54,8.59-8.2,16.27s-8.96,14.38-10.78,15.41c-.13.07-.36.12-.54.11v.02l.39.22.06.03Z"/>
    <path class="cls-18" d="M49.61,38.4c.17.1.18.28.14.62-.24,2.13-3.38,8.59-7.95,16.23-5.32,8.9-10.18,16.24-11.44,15.44l-.38-.22v-.04c2.16.72,10.86-14.5,11.42-15.39,5.45-8.8,8.64-16.23,7.81-16.88l.41.24h0ZM27.74,69.37c1.37.51,5.9-6.81,11.26-15.62,5.36-8.81,8.67-16.4,8.19-16.97-.06-.04-.48-.28-.48-.26.16.1.21.36.09.76-.69,2.38-3.54,8.59-8.2,16.27s-8.96,14.38-10.78,15.41c-.13.07-.36.12-.54.11v.02l.39.22.06.03Z"/>
    <path class="cls-3" d="M32.05,53.24c-.05-5.7-.78-12.73-2.39-16.77l-1.42.87c1.32,2.39,2.19,9.46,2.32,15.95-.07,7.68-.79,13.09-2.61,15.81l1.51.82c2.11-4.99,2.56-10.1,2.58-16.68"/>
    <path class="cls-18" d="M32.05,53.24c-.05-5.7-.78-12.73-2.39-16.77l-1.42.87c1.32,2.39,2.19,9.46,2.32,15.95-.07,7.68-.79,13.09-2.61,15.81l1.51.82c2.11-4.99,2.56-10.1,2.58-16.68"/>
    <path class="cls-3" d="M28.25,37c.35.43,1.11,2.58,1.71,6.37.36,2.53.69,5.74.69,9.85,0,3.9-.26,7.09-.61,9.51-.5,3.85-1.41,5.89-1.67,6.63-.13-.07-.25-.15-.38-.23.29-.57,1.09-2.55,1.64-6.45.34-2.4.59-5.59.59-9.47,0-4.09-.34-7.26-.7-9.77-.52-3.81-1.5-5.86-1.74-6.17l.46-.28h0ZM29.69,36.23c.22.14,1.13,2.78,1.8,6.67.4,2.63.74,6.07.75,10.36,0,4.08-.29,7.41-.63,9.93-.64,4.08-1.53,6.19-1.85,6.96-.15-.07-.25-.12-.39-.19.89-2.24,1.43-4.36,1.81-6.84.34-2.5.63-5.79.63-9.85,0-4.27-.37-7.67-.76-10.29-.64-3.99-1.47-6.16-1.86-6.47l.49-.28h0Z"/>
    <path class="cls-18" d="M28.25,37c.35.43,1.11,2.58,1.71,6.37.36,2.53.69,5.74.69,9.85,0,3.9-.26,7.09-.61,9.51-.5,3.85-1.41,5.89-1.67,6.63-.13-.07-.25-.15-.38-.23.29-.57,1.09-2.55,1.64-6.45.34-2.4.59-5.59.59-9.47,0-4.09-.34-7.26-.7-9.77-.52-3.81-1.5-5.86-1.74-6.17l.46-.28h0ZM29.69,36.23c.22.14,1.13,2.78,1.8,6.67.4,2.63.74,6.07.75,10.36,0,4.08-.29,7.41-.63,9.93-.64,4.08-1.53,6.19-1.85,6.96-.15-.07-.25-.12-.39-.19.89-2.24,1.43-4.36,1.81-6.84.34-2.5.63-5.79.63-9.85,0-4.27-.37-7.67-.76-10.29-.64-3.99-1.47-6.16-1.86-6.47l.49-.28h0Z"/>
    <path class="cls-3" d="M38.91,71.95c1.88-3.5,2.83-11.29,2.9-18.65,0-6.71-1.04-15.44-2.77-18.71l-1.89.09c1.6,1.02,3.13,10.38,3.07,18.69-.06,8.31-1.35,16.02-3.01,18.59l1.7-.02"/>
    <path class="cls-18" d="M38.91,71.95c1.88-3.5,2.83-11.29,2.9-18.65,0-6.71-1.04-15.44-2.77-18.71l-1.89.09c1.6,1.02,3.13,10.38,3.07,18.69-.06,8.31-1.35,16.02-3.01,18.59l1.7-.02"/>
    <path class="cls-3" d="M37.04,34.41h.45c.59.49,1.47,3.57,2.1,7.43.45,2.94.79,6.77.79,11.54s-.32,8.15-.75,10.96c-.64,4.43-1.78,7.27-2.11,7.84h-.52c1.14-1.71,1.97-6.34,2.22-7.9.43-2.79.75-6.38.75-10.89,0-4.75-.34-8.56-.79-11.48-.4-2.77-1.44-6.72-2.13-7.49ZM38.64,34.41h.45c.59.49,1.47,3.57,2.1,7.43.45,2.94.79,6.77.79,11.54s-.32,8.15-.75,10.96c-.65,4.43-1.78,7.27-2.11,7.84h-.52c1.14-1.71,1.97-6.34,2.22-7.9.43-2.79.75-6.38.75-10.89,0-4.75-.34-8.56-.79-11.48-.4-2.77-1.44-6.72-2.13-7.49Z"/>
    <path class="cls-18" d="M37.04,34.41h.45c.59.49,1.47,3.57,2.1,7.43.45,2.94.79,6.77.79,11.54s-.32,8.15-.75,10.96c-.64,4.43-1.78,7.27-2.11,7.84h-.52c1.14-1.71,1.97-6.34,2.22-7.9.43-2.79.75-6.38.75-10.89,0-4.75-.34-8.56-.79-11.48-.4-2.77-1.44-6.72-2.13-7.49ZM38.64,34.41h.45c.59.49,1.47,3.57,2.1,7.43.45,2.94.79,6.77.79,11.54s-.32,8.15-.75,10.96c-.65,4.43-1.78,7.27-2.11,7.84h-.52c1.14-1.71,1.97-6.34,2.22-7.9.43-2.79.75-6.38.75-10.89,0-4.75-.34-8.56-.79-11.48-.4-2.77-1.44-6.72-2.13-7.49Z"/>
    <path class="cls-3" d="M49.21,53.31c-.05,8.06-2.2,14.96-2.55,16.42l1.66-1.06c1.08-2.58,2.7-9.31,2.52-15.44-.18-6.12-.65-11.48-2.49-15.25l-1.72-1.09c1.21,2.57,2.57,11.32,2.58,16.41"/>
    <path class="cls-18" d="M49.21,53.31c-.05,8.06-2.2,14.96-2.55,16.42l1.66-1.06c1.08-2.58,2.7-9.31,2.52-15.44-.18-6.12-.65-11.48-2.49-15.25l-1.72-1.09c1.21,2.57,2.57,11.32,2.58,16.41"/>
    <path class="cls-3" d="M46.41,36.63s0,0,.01-.01c.2.12.41.24.61.37.34.95,1.09,3.52,1.62,7.28.34,2.48.67,4.02.76,8.95-.23,9.24-2.04,15.21-2.49,16.63l-.4.21c1.4-5.35,2.37-10.82,2.47-16.85-.1-4.51-.43-6.43-.76-8.88-.68-4.38-1.4-6.59-1.61-7.26-.01,0-.02.02-.04.03l-.18-.48h0ZM47.96,37.58c.24.16.49.32.72.49.63,1.78,1.29,4.58,1.48,5.76.5,2.42.87,6.15.87,9.47-.11,7.14-1.5,12.98-2.69,15.73l-.38.22-.06-.04.15-.38c1.75-4.89,2.45-10.38,2.57-15.58.01-3.3-.38-6.61-.86-9.29-.82-4.1-1.44-5.76-1.72-6.27l-.07-.13Z"/>
    <path class="cls-17" d="M46.41,36.63s0,0,.01-.01c.2.12.41.24.61.37.34.95,1.09,3.52,1.62,7.28.34,2.48.67,4.02.76,8.95-.23,9.24-2.04,15.21-2.49,16.63l-.4.21c1.4-5.35,2.37-10.82,2.47-16.85-.1-4.51-.43-6.43-.76-8.88-.68-4.38-1.4-6.59-1.61-7.26-.01,0-.02.02-.04.03l-.18-.48h0ZM47.96,37.58c.24.16.49.32.72.49.63,1.78,1.29,4.58,1.48,5.76.5,2.42.87,6.15.87,9.47-.11,7.14-1.5,12.98-2.69,15.73l-.38.22-.06-.04.15-.38c1.75-4.89,2.45-10.38,2.57-15.58.01-3.3-.38-6.61-.86-9.29-.82-4.1-1.44-5.76-1.72-6.27l-.07-.13Z"/>
    <path class="cls-3" d="M19.27,53.34c0-10.27,8.35-18.71,18.6-18.71s18.6,8.44,18.6,18.71-8.35,18.64-18.6,18.64-18.6-8.37-18.6-18.64M37.42,36.54c5.3-.03,10.06,2.69,12.16,4.87,2.97,3.09,4.88,7.19,4.97,11.98.1,5.35-3.39,10.39-4.92,11.74-2.99,2.64-6.79,4.79-11.92,4.86-5.79-.33-9.82-2.6-12.58-5.89-2.76-3.29-4.11-7.68-4.01-11.33.11-4.21,2.18-9.13,6.28-12.53,2.69-2.23,5.6-3.19,10.02-3.7"/>
    <path class="cls-18" d="M19.27,53.34c0-10.27,8.35-18.71,18.6-18.71s18.6,8.44,18.6,18.71-8.35,18.64-18.6,18.64-18.6-8.37-18.6-18.64M37.42,36.54c5.3-.03,10.06,2.69,12.16,4.87,2.97,3.09,4.88,7.19,4.97,11.98.1,5.35-3.39,10.39-4.92,11.74-2.99,2.64-6.79,4.79-11.92,4.86-5.79-.33-9.82-2.6-12.58-5.89-2.76-3.29-4.11-7.68-4.01-11.33.11-4.21,2.18-9.13,6.28-12.53,2.69-2.23,5.6-3.19,10.02-3.7Z"/>
    <path class="cls-3" d="M37.86,71.53c10.04,0,18.25-8.24,18.25-18.24s-8.21-18.24-18.25-18.24-18.25,8.24-18.25,18.24,8.21,18.24,18.25,18.24M19.21,53.29c0-10.27,8.38-18.65,18.66-18.65s18.66,8.38,18.66,18.65-8.38,18.66-18.66,18.66-18.66-8.38-18.66-18.66"/>
    <path class="cls-18" d="M37.86,71.53c10.04,0,18.25-8.24,18.25-18.24s-8.21-18.24-18.25-18.24-18.25,8.24-18.25,18.24,8.21,18.24,18.25,18.24ZM19.21,53.29c0-10.27,8.38-18.65,18.66-18.65s18.66,8.38,18.66,18.65-8.38,18.66-18.66,18.66-18.66-8.38-18.66-18.66Z"/>
    <path class="cls-3" d="M37.85,69.95c9.17,0,16.68-7.53,16.68-16.68s-7.51-16.68-16.68-16.68-16.68,7.53-16.68,16.68,7.51,16.68,16.68,16.68M20.76,53.27c0-9.37,7.69-17.09,17.09-17.09s17.09,7.72,17.09,17.09-7.69,17.09-17.09,17.09-17.09-7.72-17.09-17.09"/>
    <path class="cls-18" d="M37.85,69.95c9.17,0,16.68-7.53,16.68-16.68s-7.51-16.68-16.68-16.68-16.68,7.53-16.68,16.68,7.51,16.68,16.68,16.68ZM20.76,53.27c0-9.37,7.69-17.09,17.09-17.09s17.09,7.72,17.09,17.09-7.69,17.09-17.09,17.09-17.09-7.72-17.09-17.09Z"/>
  </g>
  <rect class="cls-4" x="19.13" y="52.52" width="37.49" height="1.6"/>
  <rect class="cls-18" x="19.13" y="52.52" width="37.49" height="1.6"/>
  <path class="cls-3" d="M18.92,54.27v-.41h37.92s0,.41,0,.41H18.92ZM18.92,52.68v-.41h37.92s0,.4,0,.4H18.92Z"/>
  <path class="cls-18" d="M18.92,54.27v-.41h37.92s0,.41,0,.41H18.92ZM18.92,52.68v-.41h37.92s0,.4,0,.4H18.92Z"/>
  <polygon class="cls-3" points="38.58 34.62 37.2 34.62 36.15 35.75 34.45 42.16 33.51 51.39 34.07 62.5 35.96 70.42 37.14 72.02 38.53 72.02 36.71 67.97 35.21 58.36 35.21 49.13 35.96 42.34 37.09 37.63 38.58 34.62"/>
  <polygon class="cls-18" points="38.58 34.62 37.2 34.62 36.15 35.75 34.45 42.16 33.51 51.39 34.07 62.5 35.96 70.42 37.14 72.02 38.53 72.02 36.71 67.97 35.21 58.36 35.21 49.13 35.96 42.34 37.09 37.63 38.58 34.62"/>
  <g class="cls-20">
    <path class="cls-3" d="M33.37,53.28c0-4.41.42-8.68,1.08-12.07.7-3.5,1.57-5.96,2.56-6.8h.49c-1.22,1.02-2.12,4.33-2.63,6.88-.65,3.36-1.08,7.61-1.07,11.99,0,4.62.45,8.91,1.09,12.22.49,2.57,1.58,6.26,2.61,6.67h-.51c-.71-.24-1.82-2.94-2.53-6.59-.65-3.34-1.08-7.65-1.09-12.3ZM34.97,53.28c0-4.41.42-8.68,1.08-12.07.7-3.5,1.57-5.96,2.56-6.8h.49c-1.22,1.02-2.12,4.33-2.63,6.88-.65,3.36-1.08,7.61-1.07,11.99,0,4.62.45,8.93,1.09,12.24.53,2.66,1.58,6.21,2.61,6.65h-.51c-.72-.24-1.79-2.88-2.53-6.59-.65-3.34-1.08-7.65-1.09-12.3"/>
    <path class="cls-18" d="M33.37,53.28c0-4.41.42-8.68,1.08-12.07.7-3.5,1.57-5.96,2.56-6.8h.49c-1.22,1.02-2.12,4.33-2.63,6.88-.65,3.36-1.08,7.61-1.07,11.99,0,4.62.45,8.91,1.09,12.22.49,2.57,1.58,6.26,2.61,6.67h-.51c-.71-.24-1.82-2.94-2.53-6.59-.65-3.34-1.08-7.65-1.09-12.3ZM34.97,53.28c0-4.41.42-8.68,1.08-12.07.7-3.5,1.57-5.96,2.56-6.8h.49c-1.22,1.02-2.12,4.33-2.63,6.88-.65,3.36-1.08,7.61-1.07,11.99,0,4.62.45,8.93,1.09,12.24.53,2.66,1.58,6.21,2.61,6.65h-.51c-.72-.24-1.79-2.88-2.53-6.59-.65-3.34-1.08-7.65-1.09-12.3Z"/>
    <path class="cls-3" d="M25.21,53.37c-.04-6.94.97-13,2.39-15.77l1.75-1.01c-1.3,2.41-2.65,8.94-2.44,16.77.04,6.38.7,13.19,2.53,16.61l-2.02-1.21c-1.46-2.81-2.19-9.43-2.2-15.4"/>
    <path class="cls-18" d="M25.21,53.37c-.04-6.94.97-13,2.39-15.77l1.75-1.01c-1.3,2.41-2.65,8.94-2.44,16.77.04,6.38.7,13.19,2.53,16.61l-2.02-1.21c-1.46-2.81-2.19-9.43-2.2-15.4"/>
    <path class="cls-3" d="M25.06,53.28c0-3.79.2-7.53.73-10.45.45-2.3,1.15-4.57,1.77-5.41l.7-.44c-.83.75-1.61,3.55-2.05,6.03-.5,2.89-.7,6.48-.73,10.27.01,3.98.25,7.65.77,10.5.52,2.72,1.13,4.48,1.61,5.22l-.58-.39c-.54-1.03-1.04-2.68-1.44-4.77-.52-2.87-.76-6.57-.77-10.57ZM26.66,53.28c-.01-3.96.21-7.79.76-10.83.53-2.83,1.32-5.54,1.74-5.92l.53-.3c-.61.94-1.3,3.28-1.87,6.28-.57,3.01-.76,6.84-.74,10.78-.02,4.47.22,7.94.74,10.92.59,3.15,1.43,5.34,1.83,5.88l-.56-.29c-.54-1.05-1.18-2.71-1.68-5.51-.56-3.08-.73-6.59-.76-11.01Z"/>
    <path class="cls-18" d="M25.06,53.28c0-3.79.2-7.53.73-10.45.45-2.3,1.15-4.57,1.77-5.41l.7-.44c-.83.75-1.61,3.55-2.05,6.03-.5,2.89-.7,6.48-.73,10.27.01,3.98.25,7.65.77,10.5.52,2.72,1.13,4.48,1.61,5.22l-.58-.39c-.54-1.03-1.04-2.68-1.44-4.77-.52-2.87-.76-6.57-.77-10.57ZM26.66,53.28c-.01-3.96.21-7.79.76-10.83.53-2.83,1.32-5.54,1.74-5.92l.53-.3c-.61.94-1.3,3.28-1.87,6.28-.57,3.01-.76,6.84-.74,10.78-.02,4.47.22,7.94.74,10.92.59,3.15,1.43,5.34,1.83,5.88l-.56-.29c-.54-1.05-1.18-2.71-1.68-5.51-.56-3.08-.73-6.59-.76-11.01Z"/>
    <path class="cls-3" d="M45.62,44.01c-.64,3.43-.73,6.87-.71,9.27.14,11.57,2.38,15.31,3.05,15.76l-1.41.87c-2.14-2.95-3.33-9.25-3.21-16.69.06-3.87.32-7.2.86-10.01l1.41.8"/>
    <path class="cls-18" d="M45.62,44.01c-.64,3.43-.73,6.87-.71,9.27.14,11.57,2.38,15.31,3.05,15.76l-1.41.87c-2.14-2.95-3.33-9.25-3.21-16.69.06-3.87.32-7.2.86-10.01l1.41.8"/>
    <path class="cls-3" d="M43.09,53.21c.06-3.33.22-6.78.88-10.12l.41.23c-.6,3.02-.8,5.91-.86,9.88,0,4.28.31,8.83,1.51,12.96.39,1.33,1.23,3.64,1.89,3.71l-.39.22c-.6-.05-1.39-2.04-1.91-3.84-1.21-4.16-1.52-8.72-1.53-13.04ZM44.71,53.35c.05-3.22.18-6.38.75-9.43l.39.22c-.52,2.83-.72,5.85-.71,9.2-.03,4.27.36,8.59,1.44,12.35.33,1.19,1.09,3.15,1.72,3.35l-.36.22c-.37-.06-1.14-1.25-1.77-3.47-1.23-4.31-1.44-8.34-1.47-12.44Z"/>
    <path class="cls-17" d="M43.09,53.21c.06-3.33.22-6.78.88-10.12l.41.23c-.6,3.02-.8,5.91-.86,9.88,0,4.28.31,8.83,1.51,12.96.39,1.33,1.23,3.64,1.89,3.71l-.39.22c-.6-.05-1.39-2.04-1.91-3.84-1.21-4.16-1.52-8.72-1.53-13.04ZM44.71,53.35c.05-3.22.18-6.38.75-9.43l.39.22c-.52,2.83-.72,5.85-.71,9.2-.03,4.27.36,8.59,1.44,12.35.33,1.19,1.09,3.15,1.72,3.35l-.36.22c-.37-.06-1.14-1.25-1.77-3.47-1.23-4.31-1.44-8.34-1.47-12.44Z"/>
  </g>
  <polygon class="cls-3" points="46.77 36.77 48.93 38.16 45.38 42.16 38.41 52.52 32 64.2 29.93 70.27 27.53 68.97 27.29 68.53 28.23 64.77 34.64 52.33 39.16 45.17 43.5 39.14 46.32 36.69 46.77 36.77"/>
  <polygon class="cls-18" points="46.77 36.77 48.93 38.16 45.38 42.16 38.41 52.52 32 64.2 29.93 70.27 27.53 68.97 27.29 68.53 28.23 64.77 34.64 52.33 39.16 45.17 43.5 39.14 46.32 36.69 46.77 36.77"/>
  <g class="cls-28">
    <path class="cls-3" d="M46.74,36.49c-1.33-.67-6.79,6.58-12.11,15.57-5.21,9.2-8.28,15.82-7.37,17.04l.49.27s-.03-.01-.08-.07c-.19-.22-.18-.59-.18-.75.03-2.08,2.77-8.04,7.56-16.39,2.13-3.66,9.7-15.46,11.83-15.42.18,0,.22-.01.31.05l-.46-.3ZM29.98,70.48c-.72-1.06,2.76-8.88,7.69-17.06,4.95-8.16,10.54-15.95,11.58-15.25l.36.23.08.11s-.16-.14-.55.01c-1.14.35-5.56,5.88-11.1,15.05-5.33,8.94-8.55,16.4-7.63,17.14l-.45-.24Z"/>
    <path class="cls-18" d="M46.74,36.49c-1.33-.67-6.79,6.58-12.11,15.57-5.21,9.2-8.28,15.82-7.37,17.04l.49.27s-.03-.01-.08-.07c-.19-.22-.18-.59-.18-.75.03-2.08,2.77-8.04,7.56-16.39,2.13-3.66,9.7-15.46,11.83-15.42.18,0,.22-.01.31.05l-.46-.3ZM29.98,70.48c-.72-1.06,2.76-8.88,7.69-17.06,4.95-8.16,10.54-15.95,11.58-15.25l.36.23.08.11s-.16-.14-.55.01c-1.14.35-5.56,5.88-11.1,15.05-5.33,8.94-8.55,16.4-7.63,17.14l-.45-.24Z"/>
    <path class="cls-8" d="M39.92,64.46c3.07,0,5.84-1.25,7.86-3.29,2.03-2.04,3.31-4.81,3.31-7.88s-1.25-5.89-3.28-7.92c-2.02-2.03-4.81-3.29-7.89-3.29h-14.92l-.03,22.37h14.94Z"/>
    <path class="cls-11" d="M39.92,64.46c3.07,0,5.84-1.25,7.86-3.29,2.03-2.04,3.31-4.81,3.31-7.88s-1.25-5.89-3.28-7.92c-2.02-2.03-4.81-3.29-7.89-3.29h-14.92l-.03,22.37h14.94Z"/>
    <path class="cls-21" d="M29.81,46.9h9.21s.97,0,.97,0h0c.26,0,.55.01.8.04,1.46.17,2.73.84,3.71,1.84,1.16,1.16,1.87,2.76,1.87,4.53s-.74,3.32-1.9,4.49c-1.19,1.2-2.82,1.89-4.51,1.89h-10.18s.02-12.8.02-12.8h0s0,0,0,0ZM39.94,64.05h0c2.93,0,5.6-1.21,7.54-3.16,1.94-1.95,3.15-4.64,3.15-7.58s-1.2-5.63-3.13-7.58c-1.93-1.94-4.6-3.15-7.55-3.15h-14.47v21.45s14.46.01,14.46.01"/>
    <path class="cls-14" d="M29.81,46.9h9.21s.97,0,.97,0h0c.26,0,.55.01.8.04,1.46.17,2.73.84,3.71,1.84,1.16,1.16,1.87,2.76,1.87,4.53s-.74,3.32-1.9,4.49c-1.19,1.2-2.82,1.89-4.51,1.89h-10.18s.02-12.8.02-12.8h0s0,0,0,0ZM39.94,64.05h0c2.93,0,5.6-1.21,7.54-3.16,1.94-1.95,3.15-4.64,3.15-7.58s-1.2-5.63-3.13-7.58c-1.93-1.94-4.6-3.15-7.55-3.15h-14.47v21.45s14.46.01,14.46.01"/>
    <path class="cls-4" d="M29.26,62.66c-1.04-.02-1.29-.76-1.29-.77,0,0,.26-.8,1.3-.79v1.56"/>
    <path class="cls-4" d="M27.99,63.29l1.19.13v-.78c-.99,0-1.15-.75-1.15-.77,0-.02.22-.75,1.15-.77v-.78l-1.2.14v2.83Z"/>
    <path class="cls-15" d="M27.99,63.29l1.19.13v-.78c-.99,0-1.15-.75-1.15-.77,0-.02.22-.75,1.15-.77v-.78l-1.2.14v2.83Z"/>
    <path class="cls-4" d="M29.19,63.48v-3.19c0-.07.07-.12.15-.12s.15.05.15.12v3.19c0,.07-.07.12-.15.12s-.15-.06-.15-.12"/>
    <path class="cls-15" d="M29.19,63.48v-3.19c0-.07.07-.12.15-.12s.15.05.15.12v3.19c0,.07-.07.12-.15.12s-.15-.06-.15-.12Z"/>
    <path class="cls-4" d="M29.18,62.31c-.62,0-.8-.43-.8-.43,0,0,.18-.44.8-.44v.87"/>
    <path class="cls-15" d="M29.18,62.31c-.62,0-.8-.43-.8-.43,0,0,.18-.44.8-.44v.87"/>
    <path class="cls-4" d="M27.49,63.41v-3.06c0-.06.06-.12.13-.12s.13.05.13.12v3.06c0,.06-.06.12-.13.12s-.13-.05-.13-.12"/>
    <path class="cls-15" d="M27.49,63.41v-3.06c0-.06.06-.12.13-.12s.13.05.13.12v3.06c0,.06-.06.12-.13.12s-.13-.05-.13-.12Z"/>
    <path class="cls-4" d="M27.76,63.34v-2.93c0-.06.06-.11.13-.11s.13.05.13.11v2.93c0,.06-.06.11-.13.11s-.13-.05-.13-.11"/>
    <path class="cls-15" d="M27.76,63.34v-2.93c0-.06.06-.11.13-.11s.13.05.13.11v2.93c0,.06-.06.11-.13.11s-.13-.05-.13-.11Z"/>
    <path class="cls-4" d="M25.76,62.4v-.23h.16v-.17h-.17v-.24h.17v-.17h-.17v-.24h.38c.06,0,.1.05.1.1v.83c0,.06-.05.11-.1.11h-.38Z"/>
    <path class="cls-15" d="M25.76,62.4v-.23h.16v-.17h-.17v-.24h.17v-.17h-.17v-.24h.38c.06,0,.1.05.1.1v.83c0,.06-.05.11-.1.11h-.38Z"/>
  </g>
  <polygon class="cls-4" points="26.27 61.53 26.27 62.23 27.48 62.29 27.48 61.47 26.27 61.53"/>
  <polyline class="cls-15" points="26.27 61.53 27.49 61.47 27.48 62.29 26.27 62.23 26.27 61.53"/>
  <polygon class="cls-4" points="26.83 62.52 26.83 62.52 26.83 63.25 27.49 63.27 27.49 62.49 26.83 62.52"/>
  <polygon class="cls-15" points="26.83 62.52 27.49 62.49 27.49 63.27 26.83 63.25 26.83 62.52"/>
  <polygon class="cls-4" points="26.83 60.52 26.83 60.52 26.83 61.25 27.49 61.27 27.49 60.49 26.83 60.52"/>
  <polygon class="cls-15" points="26.83 60.52 27.49 60.49 27.49 61.27 26.83 61.25 26.83 60.52"/>
  <g class="cls-24">
    <path class="cls-4" d="M26.36,63.39v-.23h.16v-.16h-.17v-.23h.17v-.17h-.17v-.23h.38c.06,0,.1.05.1.1v.81c0,.05-.04.11-.1.11h-.38Z"/>
    <path class="cls-15" d="M26.36,63.39v-.23h.16v-.16h-.17v-.23h.17v-.17h-.17v-.23h.38c.06,0,.1.05.1.1v.81c0,.05-.04.11-.1.11h-.38Z"/>
    <path class="cls-4" d="M26.36,61.39v-.23h.16v-.16h-.17v-.23h.17v-.17h-.17v-.23h.38c.06,0,.1.05.1.1v.81c0,.05-.04.11-.1.11h-.38Z"/>
    <path class="cls-15" d="M26.36,61.39v-.23h.16v-.16h-.17v-.23h.17v-.17h-.17v-.23h.38c.06,0,.1.05.1.1v.81c0,.05-.04.11-.1.11h-.38Z"/>
    <path class="cls-26" d="M26.65,61.96c-.12,0-.12-.16,0-.16h.29v.16h-.29"/>
    <path class="cls-26" d="M27.07,62.96c-.11,0-.12-.16,0-.16h.22v.16h-.22"/>
    <path class="cls-26" d="M27.07,60.96c-.11,0-.12-.16,0-.16h.22v.16h-.22"/>
    <path class="cls-4" d="M37.98,62.66c-1.04-.02-1.29-.76-1.29-.77,0,0,.26-.8,1.3-.79v1.56"/>
    <path class="cls-4" d="M36.71,63.29l1.19.13v-.78c-.99,0-1.15-.75-1.15-.77,0-.02.22-.75,1.15-.77v-.78l-1.2.14v2.83Z"/>
    <path class="cls-15" d="M36.71,63.29l1.19.13v-.78c-.99,0-1.15-.75-1.15-.77,0-.02.22-.75,1.15-.77v-.78l-1.2.14v2.83Z"/>
    <path class="cls-4" d="M37.91,63.48v-3.19c0-.07.07-.12.15-.12s.15.05.15.12v3.19c0,.07-.07.12-.15.12s-.15-.06-.15-.12"/>
    <path class="cls-15" d="M37.91,63.48v-3.19c0-.07.07-.12.15-.12s.15.05.15.12v3.19c0,.07-.07.12-.15.12s-.15-.06-.15-.12Z"/>
    <path class="cls-4" d="M37.91,62.31c-.62,0-.8-.43-.8-.43,0,0,.18-.44.8-.44v.87"/>
    <path class="cls-15" d="M37.91,62.31c-.62,0-.8-.43-.8-.43,0,0,.18-.44.8-.44v.87"/>
    <path class="cls-4" d="M36.22,63.41v-3.06c0-.06.06-.12.13-.12s.13.05.13.12v3.06c0,.06-.06.12-.13.12s-.13-.05-.13-.12"/>
    <path class="cls-15" d="M36.22,63.41v-3.06c0-.06.06-.12.13-.12s.13.05.13.12v3.06c0,.06-.06.12-.13.12s-.13-.05-.13-.12Z"/>
    <path class="cls-4" d="M36.48,63.34v-2.93c0-.06.06-.11.13-.11s.13.05.13.11v2.93c0,.06-.06.11-.13.11s-.13-.05-.13-.11"/>
    <path class="cls-15" d="M36.48,63.34v-2.93c0-.06.06-.11.13-.11s.13.05.13.11v2.93c0,.06-.06.11-.13.11s-.13-.05-.13-.11Z"/>
    <path class="cls-4" d="M34.49,62.4v-.23h.16v-.17h-.17v-.24h.17v-.17h-.17v-.24h.38c.06,0,.1.05.1.1v.83c0,.06-.05.11-.1.11h-.38Z"/>
    <path class="cls-15" d="M34.49,62.4v-.23h.16v-.17h-.17v-.24h.17v-.17h-.17v-.24h.38c.06,0,.1.05.1.1v.83c0,.06-.05.11-.1.11h-.38Z"/>
  </g>
  <polygon class="cls-4" points="35 61.53 34.99 62.23 36.21 62.29 36.21 61.47 35 61.53"/>
  <polyline class="cls-15" points="35 61.53 36.21 61.47 36.21 62.29 34.99 62.23 35 61.53"/>
  <polygon class="cls-4" points="35.56 62.52 35.56 63.25 36.22 63.27 36.21 62.49 35.56 62.52"/>
  <polygon class="cls-15" points="35.56 62.52 36.21 62.49 36.22 63.27 35.56 63.25 35.56 62.52"/>
  <polygon class="cls-4" points="35.56 60.52 35.56 61.25 36.22 61.27 36.21 60.49 35.56 60.52"/>
  <polygon class="cls-15" points="35.56 60.52 36.21 60.49 36.22 61.27 35.56 61.25 35.56 60.52"/>
  <g class="cls-5">
    <path class="cls-4" d="M35.08,63.39v-.23h.16v-.16h-.17v-.23h.17v-.17h-.17v-.23h.38c.06,0,.1.05.1.1v.81c0,.05-.04.11-.1.11h-.38Z"/>
    <path class="cls-15" d="M35.08,63.39v-.23h.16v-.16h-.17v-.23h.17v-.17h-.17v-.23h.38c.06,0,.1.05.1.1v.81c0,.05-.04.11-.1.11h-.38Z"/>
    <path class="cls-4" d="M35.08,61.39v-.23h.16v-.16h-.17v-.23h.17v-.17h-.17v-.23h.38c.06,0,.1.05.1.1v.81c0,.05-.04.11-.1.11h-.38Z"/>
    <path class="cls-15" d="M35.08,61.39v-.23h.16v-.16h-.17v-.23h.17v-.17h-.17v-.23h.38c.06,0,.1.05.1.1v.81c0,.05-.04.11-.1.11h-.38Z"/>
    <path class="cls-26" d="M35.38,61.96c-.12,0-.12-.16,0-.16h.29v.16h-.29"/>
    <path class="cls-26" d="M35.8,62.96c-.11,0-.12-.16,0-.16h.22v.16h-.22"/>
    <path class="cls-26" d="M35.8,60.96c-.11,0-.12-.16,0-.16h.22v.16h-.22"/>
    <path class="cls-4" d="M47.07,59.25c-.75.72-1.45.37-1.45.37,0,0-.38-.75.35-1.48l1.1,1.11"/>
    <path class="cls-4" d="M46.63,60.6l.93-.76-.55-.55c-.7.7-1.34.29-1.35.28-.01-.01-.38-.68.26-1.36l-.56-.55-.75.95,2.01,1.99h0s0,0,0,0Z"/>
    <path class="cls-19" d="M46.63,60.6l.93-.76-.55-.55c-.7.7-1.34.29-1.35.28-.01-.01-.38-.68.26-1.36l-.56-.55-.75.95,2.01,1.99h0s0,0,0,0Z"/>
    <path class="cls-4" d="M47.6,59.88l-2.27-2.25s-.04-.13.02-.19c.06-.06.14-.07.19-.02l2.27,2.25s.04.13-.02.19c-.06.06-.14.07-.19.02"/>
    <path class="cls-19" d="M47.6,59.88l-2.27-2.25s-.04-.13.02-.19c.06-.06.14-.07.19-.02l2.27,2.25s.04.13-.02.19c-.06.06-.14.07-.19.02Z"/>
    <path class="cls-4" d="M46.77,59.07c-.44.44-.87.27-.87.27,0,0-.18-.44.25-.88l.62.62"/>
    <path class="cls-19" d="M46.77,59.07c-.44.44-.87.27-.87.27,0,0-.18-.44.25-.88l.62.62"/>
    <path class="cls-4" d="M46.36,61.04l-2.17-2.16s-.04-.13.01-.18c.05-.05.13-.06.18-.01l2.17,2.16s.04.12-.01.18c-.05.05-.13.06-.18.01"/>
    <path class="cls-19" d="M46.36,61.04l-2.17-2.16s-.04-.13.01-.18c.05-.05.13-.06.18-.01l2.17,2.16s.04.12-.01.18c-.05.05-.13.06-.18.01Z"/>
    <path class="cls-4" d="M46.5,60.8l-2.08-2.06s-.04-.12.01-.17c.05-.05.13-.06.17-.02l2.08,2.06s.04.12-.01.17c-.05.05-.13.06-.17.02"/>
    <path class="cls-19" d="M46.5,60.8l-2.08-2.06s-.04-.12.01-.17c.05-.05.13-.06.17-.02l2.08,2.06s.04.12-.01.17c-.05.05-.13.06-.17.02Z"/>
    <path class="cls-4" d="M44.42,61.55l-.16-.16.12-.12-.12-.12-.12.12-.17-.17.12-.12-.12-.12-.12.12-.17-.17.27-.27s.1-.04.14,0l.59.59s.04.11,0,.15l-.26.27h0s0,0,0,0Z"/>
    <path class="cls-19" d="M44.42,61.55l-.16-.16.12-.12-.12-.12-.12.12-.17-.17.12-.12-.12-.12-.12.12-.17-.17.27-.27s.1-.04.14,0l.59.59s.04.11,0,.15l-.26.27h0s0,0,0,0Z"/>
  </g>
  <polygon class="cls-4" points="44.66 61.08 44.16 60.58 44.98 59.68 45.55 60.25 44.66 61.08"/>
  <polyline class="cls-19" points="44.16 60.58 44.98 59.68 45.55 60.25 44.66 61.08 44.16 60.58"/>
  <path class="cls-4" d="M45.26,60.88,45.26,60.88h0s0,0,0,0h0ZM45.78,61.39l-.52-.51.44-.48.55.55-.48.45Z"/>
  <polygon class="cls-19" points="45.26 60.88 45.7 60.39 46.26 60.94 45.78 61.39 45.26 60.88 45.26 60.88"/>
  <path class="cls-4" d="M43.84,59.47h0s0,0,0,0ZM44.36,59.98l-.52-.51.44-.48.55.55-.48.45Z"/>
  <polygon class="cls-19" points="43.84 59.47 44.29 58.98 44.84 59.53 44.36 59.98 43.84 59.47 43.84 59.47"/>
  <g class="cls-22">
    <path class="cls-4" d="M45.55,61.83l-.16-.16.12-.12-.12-.12-.12.12-.16-.16.12-.12-.12-.12-.12.12-.16-.16.27-.27s.1-.04.14,0l.58.57s.04.11,0,.14l-.26.27h0Z"/>
    <path class="cls-19" d="M45.55,61.83l-.16-.16.12-.12-.12-.12-.12.12-.16-.16.12-.12-.12-.12-.12.12-.16-.16.27-.27s.1-.04.14,0l.58.57s.04.11,0,.14l-.26.27h0Z"/>
    <path class="cls-4" d="M44.13,60.42l-.16-.16.12-.12-.12-.12-.12.12-.16-.16.12-.12-.12-.12-.12.12-.16-.16.27-.27s.1-.04.14,0l.58.57s.04.11,0,.14l-.26.27h0Z"/>
    <path class="cls-19" d="M44.13,60.42l-.16-.16.12-.12-.12-.12-.12.12-.16-.16.12-.12-.12-.12-.12.12-.16-.16.27-.27s.1-.04.14,0l.58.57s.04.11,0,.14l-.26.27h0Z"/>
    <path class="cls-26" d="M44.74,60.61c-.08.09-.2-.03-.12-.11l.2-.21.12.11-.2.21"/>
    <path class="cls-26" d="M45.75,61.02c-.08.08-.19-.03-.11-.11l.16-.16.11.11-.16.16"/>
    <path class="cls-26" d="M44.32,59.61c-.08.08-.19-.03-.11-.11l.16-.16.11.11-.16.16"/>
    <path class="cls-4" d="M29.26,54.04c-1.04-.02-1.29-.76-1.29-.77,0,0,.26-.8,1.3-.79v1.56"/>
    <path class="cls-4" d="M27.99,54.68l1.19.13v-.78c-.99,0-1.15-.75-1.15-.77,0-.02.22-.75,1.15-.77v-.78l-1.2.14v2.83Z"/>
    <path class="cls-15" d="M27.99,54.68l1.19.13v-.78c-.99,0-1.15-.75-1.15-.77,0-.02.22-.75,1.15-.77v-.78l-1.2.14v2.83Z"/>
    <path class="cls-4" d="M29.19,54.86v-3.19c0-.07.07-.12.15-.12s.15.05.15.12v3.19c0,.07-.07.12-.15.12s-.15-.06-.15-.12"/>
    <path class="cls-15" d="M29.19,54.86v-3.19c0-.07.07-.12.15-.12s.15.05.15.12v3.19c0,.07-.07.12-.15.12s-.15-.06-.15-.12Z"/>
    <path class="cls-4" d="M29.18,53.7c-.62,0-.8-.43-.8-.43,0,0,.18-.44.8-.44v.87"/>
    <path class="cls-15" d="M29.18,53.7c-.62,0-.8-.43-.8-.43,0,0,.18-.44.8-.44v.87"/>
    <path class="cls-4" d="M27.49,54.79v-3.06c0-.06.06-.12.13-.12s.13.05.13.12v3.06c0,.06-.06.12-.13.12s-.13-.05-.13-.12"/>
    <path class="cls-15" d="M27.49,54.79v-3.06c0-.06.06-.12.13-.12s.13.05.13.12v3.06c0,.06-.06.12-.13.12s-.13-.05-.13-.12Z"/>
    <path class="cls-4" d="M27.76,54.73v-2.93c0-.06.06-.11.13-.11s.13.05.13.11v2.93c0,.06-.06.11-.13.11s-.13-.05-.13-.11"/>
    <path class="cls-15" d="M27.76,54.73v-2.93c0-.06.06-.11.13-.11s.13.05.13.11v2.93c0,.06-.06.11-.13.11s-.13-.05-.13-.11Z"/>
    <path class="cls-4" d="M25.76,53.78v-.23h.16v-.17h-.17v-.24h.17v-.17h-.17v-.24h.38c.06,0,.1.05.1.1v.83c0,.06-.05.11-.1.11h-.38Z"/>
    <path class="cls-15" d="M25.76,53.78v-.23h.16v-.17h-.17v-.24h.17v-.17h-.17v-.24h.38c.06,0,.1.05.1.1v.83c0,.06-.05.11-.1.11h-.38Z"/>
  </g>
  <polygon class="cls-4" points="26.27 52.91 26.27 53.62 27.48 53.67 27.48 52.86 26.27 52.91"/>
  <polyline class="cls-15" points="26.27 52.91 27.49 52.86 27.48 53.67 26.27 53.62 26.27 52.91"/>
  <polygon class="cls-4" points="26.83 53.9 26.83 53.9 26.83 54.63 27.49 54.66 27.49 53.88 26.83 53.9"/>
  <polygon class="cls-15" points="26.83 53.9 27.49 53.88 27.49 54.66 26.83 54.63 26.83 53.9"/>
  <polygon class="cls-4" points="26.83 51.9 26.83 51.9 26.83 52.64 27.49 52.66 27.49 51.88 26.83 51.9"/>
  <polygon class="cls-15" points="26.83 51.9 27.49 51.88 27.49 52.66 26.83 52.64 26.83 51.9"/>
  <g class="cls-1">
    <path class="cls-4" d="M26.36,54.78v-.23h.16v-.16h-.17v-.23h.17v-.17h-.17v-.23h.38c.06,0,.1.05.1.1v.81c0,.05-.04.11-.1.11h-.38Z"/>
    <path class="cls-15" d="M26.36,54.78v-.23h.16v-.16h-.17v-.23h.17v-.17h-.17v-.23h.38c.06,0,.1.05.1.1v.81c0,.05-.04.11-.1.11h-.38Z"/>
    <path class="cls-4" d="M26.36,52.78v-.23h.16v-.16h-.17v-.23h.17v-.17h-.17v-.23h.38c.06,0,.1.05.1.1v.81c0,.05-.04.11-.1.11h-.38Z"/>
    <path class="cls-15" d="M26.36,52.78v-.23h.16v-.16h-.17v-.23h.17v-.17h-.17v-.23h.38c.06,0,.1.05.1.1v.81c0,.05-.04.11-.1.11h-.38Z"/>
    <path class="cls-26" d="M26.65,53.35c-.12,0-.12-.16,0-.16h.29v.16h-.29"/>
    <path class="cls-26" d="M27.07,54.35c-.11,0-.12-.16,0-.16h.22v.16h-.22"/>
    <path class="cls-26" d="M27.07,52.34c-.11,0-.12-.16,0-.16h.22v.16h-.22"/>
    <path class="cls-4" d="M29.26,43.93c-1.04.03-1.29.76-1.29.77,0,0,.26.8,1.3.79v-1.56"/>
    <path class="cls-4" d="M27.99,43.29l1.19-.13v.78c-.99,0-1.15.75-1.15.77,0,.02.22.75,1.15.77v.78l-1.2-.14v-2.83Z"/>
    <path class="cls-15" d="M27.99,43.29l1.19-.13v.78c-.99,0-1.15.75-1.15.77,0,.02.22.75,1.15.77v.78l-1.2-.14v-2.83Z"/>
    <path class="cls-4" d="M29.19,43.11v3.19c0,.07.07.12.15.12s.15-.05.15-.12v-3.19c0-.07-.07-.12-.15-.12s-.15.06-.15.12"/>
    <path class="cls-15" d="M29.19,43.11v3.19c0,.07.07.12.15.12s.15-.05.15-.12v-3.19c0-.07-.07-.12-.15-.12s-.15.06-.15.12Z"/>
    <path class="cls-4" d="M29.18,44.27c-.62,0-.8.43-.8.43,0,0,.18.44.8.44v-.87"/>
    <path class="cls-15" d="M29.18,44.27c-.62,0-.8.43-.8.43,0,0,.18.44.8.44v-.87"/>
    <path class="cls-4" d="M27.49,43.18v3.06c0,.06.06.12.13.12s.13-.05.13-.12v-3.06c0-.06-.06-.12-.13-.12s-.13.05-.13.12"/>
    <path class="cls-15" d="M27.49,43.18v3.06c0,.06.06.12.13.12s.13-.05.13-.12v-3.06c0-.06-.06-.12-.13-.12s-.13.05-.13.12Z"/>
    <path class="cls-4" d="M27.76,43.24v2.93c0,.06.06.11.13.11s.13-.05.13-.11v-2.93c0-.06-.06-.11-.13-.11s-.13.05-.13.11"/>
    <path class="cls-15" d="M27.76,43.24v2.93c0,.06.06.11.13.11s.13-.05.13-.11v-2.93c0-.06-.06-.11-.13-.11s-.13.05-.13.11Z"/>
    <path class="cls-4" d="M25.76,44.19v.23h.16v.17h-.17v.24h.17v.17h-.17v.24h.38c.06,0,.1-.05.1-.1v-.83c0-.06-.05-.11-.1-.11h-.38Z"/>
    <path class="cls-15" d="M25.76,44.19v.23h.16v.17h-.17v.24h.17v.17h-.17v.24h.38c.06,0,.1-.05.1-.1v-.83c0-.06-.05-.11-.1-.11h-.38Z"/>
  </g>
  <polygon class="cls-4" points="26.27 44.35 26.27 45.06 27.48 45.11 27.48 44.3 26.27 44.35"/>
  <polyline class="cls-15" points="26.27 45.06 27.49 45.11 27.48 44.3 26.27 44.35 26.27 45.06"/>
  <polygon class="cls-4" points="26.83 43.34 26.83 44.07 26.83 44.07 26.83 44.07 26.83 44.07 26.83 44.07 27.49 44.09 27.49 43.32 26.83 43.34"/>
  <polygon class="cls-15" points="26.83 44.07 27.49 44.09 27.49 43.32 26.83 43.34 26.83 44.07"/>
  <polygon class="cls-4" points="26.83 45.34 26.83 46.07 26.83 46.07 26.83 46.07 26.83 46.07 26.83 46.07 27.49 46.09 27.49 45.31 26.83 45.34"/>
  <polygon class="cls-15" points="26.83 46.07 27.49 46.09 27.49 45.31 26.83 45.34 26.83 46.07"/>
  <g class="cls-2">
    <path class="cls-4" d="M26.36,43.19v.23h.16v.16h-.17v.23h.17v.17h-.17v.23h.38c.06,0,.1-.05.1-.1v-.81c0-.05-.04-.11-.1-.11h-.38Z"/>
    <path class="cls-15" d="M26.36,43.19v.23h.16v.16h-.17v.23h.17v.17h-.17v.23h.38c.06,0,.1-.05.1-.1v-.81c0-.05-.04-.11-.1-.11h-.38Z"/>
    <path class="cls-4" d="M26.36,45.19v.23h.16v.16h-.17v.23h.17v.17h-.17v.23h.38c.06,0,.1-.05.1-.1v-.81c0-.05-.04-.11-.1-.11h-.38Z"/>
    <path class="cls-15" d="M26.36,45.19v.23h.16v.16h-.17v.23h.17v.17h-.17v.23h.38c.06,0,.1-.05.1-.1v-.81c0-.05-.04-.11-.1-.11h-.38Z"/>
    <path class="cls-26" d="M26.65,44.63c-.12,0-.12.17,0,.16h.29v-.16h-.29"/>
    <path class="cls-26" d="M27.07,43.62c-.11,0-.12.16,0,.16h.22v-.16h-.22"/>
    <path class="cls-26" d="M27.07,45.63c-.11,0-.12.16,0,.16h.22v-.16h-.22"/>
    <path class="cls-4" d="M37.98,43.93c-1.04.03-1.29.76-1.29.77,0,0,.26.8,1.3.79v-1.56"/>
    <path class="cls-4" d="M36.71,43.29l1.19-.13v.78c-.99,0-1.15.75-1.15.77,0,.02.22.75,1.15.77v.78l-1.2-.14v-2.83Z"/>
    <path class="cls-15" d="M36.71,43.29l1.19-.13v.78c-.99,0-1.15.75-1.15.77,0,.02.22.75,1.15.77v.78l-1.2-.14v-2.83Z"/>
    <path class="cls-4" d="M37.91,43.11v3.19c0,.07.07.12.15.12s.15-.05.15-.12v-3.19c0-.07-.07-.12-.15-.12s-.15.06-.15.12"/>
    <path class="cls-15" d="M37.91,43.11v3.19c0,.07.07.12.15.12s.15-.05.15-.12v-3.19c0-.07-.07-.12-.15-.12s-.15.06-.15.12Z"/>
    <path class="cls-4" d="M37.91,44.27c-.62,0-.8.43-.8.43,0,0,.18.44.8.44v-.87"/>
    <path class="cls-15" d="M37.91,44.27c-.62,0-.8.43-.8.43,0,0,.18.44.8.44v-.87"/>
    <path class="cls-4" d="M36.22,43.18v3.06c0,.06.06.12.13.12s.13-.05.13-.12v-3.06c0-.06-.06-.12-.13-.12s-.13.05-.13.12"/>
    <path class="cls-15" d="M36.22,43.18v3.06c0,.06.06.12.13.12s.13-.05.13-.12v-3.06c0-.06-.06-.12-.13-.12s-.13.05-.13.12Z"/>
    <path class="cls-4" d="M36.48,43.24v2.93c0,.06.06.11.13.11s.13-.05.13-.11v-2.93c0-.06-.06-.11-.13-.11s-.13.05-.13.11"/>
    <path class="cls-15" d="M36.48,43.24v2.93c0,.06.06.11.13.11s.13-.05.13-.11v-2.93c0-.06-.06-.11-.13-.11s-.13.05-.13.11Z"/>
    <path class="cls-4" d="M34.49,44.19v.23h.16v.17h-.17v.24h.17v.17h-.17v.24h.38c.06,0,.1-.05.1-.1v-.83c0-.06-.05-.11-.1-.11h-.38Z"/>
    <path class="cls-15" d="M34.49,44.19v.23h.16v.17h-.17v.24h.17v.17h-.17v.24h.38c.06,0,.1-.05.1-.1v-.83c0-.06-.05-.11-.1-.11h-.38Z"/>
  </g>
  <polygon class="cls-4" points="34.99 44.35 35 45.06 36.21 45.11 36.21 44.3 34.99 44.35"/>
  <polyline class="cls-15" points="35 45.06 36.21 45.11 36.21 44.3 34.99 44.35 35 45.06"/>
  <polygon class="cls-4" points="35.56 43.34 35.56 44.07 35.56 44.07 35.56 44.07 36.21 44.09 36.22 43.32 35.56 43.34"/>
  <polygon class="cls-15" points="35.56 44.07 36.21 44.09 36.22 43.32 35.56 43.34 35.56 44.07"/>
  <polygon class="cls-4" points="35.56 45.34 35.56 46.07 35.56 46.07 35.56 46.07 36.21 46.09 36.22 45.31 35.56 45.34"/>
  <polygon class="cls-15" points="35.56 46.07 36.21 46.09 36.22 45.31 35.56 45.34 35.56 46.07"/>
  <g class="cls-23">
    <path class="cls-4" d="M35.08,43.19v.23h.16v.16h-.17v.23h.17v.17h-.17v.23h.38c.06,0,.1-.05.1-.1v-.81c0-.05-.04-.11-.1-.11h-.38Z"/>
    <path class="cls-15" d="M35.08,43.19v.23h.16v.16h-.17v.23h.17v.17h-.17v.23h.38c.06,0,.1-.05.1-.1v-.81c0-.05-.04-.11-.1-.11h-.38Z"/>
    <path class="cls-4" d="M35.08,45.19v.23h.16v.16h-.17v.23h.17v.17h-.17v.23h.38c.06,0,.1-.05.1-.1v-.81c0-.05-.04-.11-.1-.11h-.38Z"/>
    <path class="cls-15" d="M35.08,45.19v.23h.16v.16h-.17v.23h.17v.17h-.17v.23h.38c.06,0,.1-.05.1-.1v-.81c0-.05-.04-.11-.1-.11h-.38Z"/>
    <path class="cls-26" d="M35.38,44.63c-.12,0-.12.17,0,.16h.29v-.16h-.29"/>
    <path class="cls-26" d="M35.8,43.62c-.11,0-.12.16,0,.16h.22v-.16h-.22"/>
    <path class="cls-26" d="M35.8,45.63c-.11,0-.12.16,0,.16h.22v-.16h-.22"/>
    <path class="cls-4" d="M47.07,47.33c-.75-.72-1.45-.37-1.45-.37,0,0-.38.75.35,1.48l1.1-1.11"/>
    <path class="cls-4" d="M46.63,45.98l.93.76-.55.55c-.7-.7-1.34-.29-1.35-.28-.01.01-.38.68.26,1.36l-.56.55-.75-.95,2.01-1.99h0s0,0,0,0Z"/>
    <path class="cls-19" d="M46.63,45.98l.93.76-.55.55c-.7-.7-1.34-.29-1.35-.28-.01.01-.38.68.26,1.36l-.56.55-.75-.95,2.01-1.99h0s0,0,0,0Z"/>
    <path class="cls-4" d="M47.6,46.7l-2.27,2.25s-.04.13.02.19c.06.06.14.07.19.02l2.27-2.25s.04-.13-.02-.19c-.06-.06-.14-.07-.19-.02"/>
    <path class="cls-19" d="M47.6,46.7l-2.27,2.25s-.04.13.02.19c.06.06.14.07.19.02l2.27-2.25s.04-.13-.02-.19c-.06-.06-.14-.07-.19-.02Z"/>
    <path class="cls-4" d="M46.77,47.52c-.44-.44-.87-.27-.87-.27,0,0-.18.44.25.88l.62-.62"/>
    <path class="cls-19" d="M46.77,47.52c-.44-.44-.87-.27-.87-.27,0,0-.18.44.25.88l.62-.62"/>
    <path class="cls-4" d="M46.36,45.55l-2.17,2.16s-.04.13.01.18c.05.05.13.06.18.01l2.17-2.16s.04-.12-.01-.18c-.05-.05-.13-.06-.18-.01"/>
    <path class="cls-19" d="M46.36,45.55l-2.17,2.16s-.04.13.01.18c.05.05.13.06.18.01l2.17-2.16s.04-.12-.01-.18c-.05-.05-.13-.06-.18-.01Z"/>
    <path class="cls-4" d="M46.5,45.78l-2.08,2.06s-.04.12.01.17c.05.05.13.06.17.02l2.08-2.06s.04-.12-.01-.17c-.05-.05-.13-.06-.17-.02"/>
    <path class="cls-19" d="M46.5,45.78l-2.08,2.06s-.04.12.01.17c.05.05.13.06.17.02l2.08-2.06s.04-.12-.01-.17c-.05-.05-.13-.06-.17-.02Z"/>
    <path class="cls-4" d="M44.42,45.03l-.16.16.12.12-.12.12-.12-.12-.17.17.12.12-.12.12-.12-.12-.17.17.27.27s.1.04.14,0l.59-.59s.04-.11,0-.15l-.26-.27h0s0,0,0,0Z"/>
    <path class="cls-19" d="M44.42,45.03l-.16.16.12.12-.12.12-.12-.12-.17.17.12.12-.12.12-.12-.12-.17.17.27.27s.1.04.14,0l.59-.59s.04-.11,0-.15l-.26-.27h0s0,0,0,0Z"/>
  </g>
  <polygon class="cls-4" points="44.98 46.91 44.16 46.01 44.66 45.51 45.55 46.33 44.98 46.91"/>
  <polyline class="cls-19" points="44.16 46.01 44.98 46.91 45.55 46.33 44.66 45.51 44.16 46.01"/>
  <path class="cls-4" d="M45.26,45.71,45.26,45.71h0s0,0,0,0h0ZM45.7,46.19l-.44-.48.52-.51.48.45-.55.55Z"/>
  <polygon class="cls-19" points="45.26 45.71 45.7 46.19 46.26 45.64 45.78 45.19 45.26 45.71 45.26 45.71"/>
  <path class="cls-4" d="M43.84,47.12h0s0,0,0,0ZM44.29,47.6l-.44-.48.52-.51.48.45-.55.55Z"/>
  <polygon class="cls-19" points="43.84 47.12 44.29 47.6 44.84 47.05 44.36 46.6 43.84 47.12 43.84 47.12"/>
  <g class="cls-6">
    <path class="cls-4" d="M45.55,44.76l-.16.16.12.12-.12.12-.12-.12-.16.16.12.12-.12.12-.12-.12-.16.16.27.27s.1.04.14,0l.58-.57s.04-.11,0-.14l-.26-.27h0Z"/>
    <path class="cls-19" d="M45.55,44.76l-.16.16.12.12-.12.12-.12-.12-.16.16.12.12-.12.12-.12-.12-.16.16.27.27s.1.04.14,0l.58-.57s.04-.11,0-.14l-.26-.27h0Z"/>
    <path class="cls-4" d="M44.13,46.16l-.16.16.12.12-.12.12-.12-.12-.16.16.12.12-.12.12-.12-.12-.16.16.27.27s.1.04.14,0l.58-.57s.04-.11,0-.14l-.26-.27h0Z"/>
    <path class="cls-19" d="M44.13,46.16l-.16.16.12.12-.12.12-.12-.12-.16.16.12.12-.12.12-.12-.12-.16.16.27.27s.1.04.14,0l.58-.57s.04-.11,0-.14l-.26-.27h0Z"/>
    <path class="cls-26" d="M44.74,45.97c-.08-.09-.2.03-.12.11l.2.21.12-.11-.2-.21"/>
    <path class="cls-26" d="M45.75,45.57c-.08-.08-.19.03-.11.11l.16.16.11-.11-.16-.16"/>
    <path class="cls-26" d="M44.32,46.98c-.08-.08-.19.03-.11.11l.16.16.11-.11-.16-.16"/>
    <path class="cls-27" d="M38.3,54.66h0c.42,0,.8-.16,1.07-.42s.45-.61.45-1-.17-.74-.45-1-.65-.41-1.07-.41h-2.03v2.82s2.03,0,2.03,0"/>
  </g>
  <path class="cls-26" d="M38.58,52.45,38.58,54.01h0M37.79,53.23h0M37.04,52.45h0M37.04,54.01h0"/>
  <path class="cls-16" d="M38.58,52.45h0M38.58,54.01h0M37.79,53.23h0M37.04,52.45h0M37.04,54.01h0"/>
  <g class="cls-7">
    <path class="cls-27" d="M33.39,54.66h0c.42,0,.8-.16,1.07-.42s.45-.61.45-1-.17-.74-.45-1-.65-.41-1.07-.41h-2.03v2.82s2.03,0,2.03,0"/>
  </g>
  <path class="cls-26" d="M33.68,52.45,33.68,54.01h0M32.89,53.23h0M32.14,52.45h0M32.14,54.01h0"/>
  <path class="cls-16" d="M33.68,52.45h0M33.68,54.01h0M32.89,53.23h0M32.14,52.45h0M32.14,54.01h0"/>
  <g class="cls-10">
    <path class="cls-27" d="M38.3,58.58h0c.42,0,.8-.16,1.07-.42s.45-.61.45-1-.17-.74-.45-1-.65-.41-1.07-.41h-2.03v2.82s2.03,0,2.03,0"/>
  </g>
  <path class="cls-26" d="M38.58,56.37,38.58,57.93h0M37.79,57.15h0M37.04,56.36h0M37.04,57.93h0"/>
  <path class="cls-16" d="M38.58,56.37h0M38.58,57.93h0M37.79,57.15h0M37.04,56.36h0M37.04,57.93h0"/>
  <g class="cls-25">
    <path class="cls-27" d="M38.3,50.75h0c.42,0,.8-.16,1.07-.42s.45-.61.45-1-.17-.74-.45-1-.65-.41-1.07-.41h-2.03v2.82s2.03,0,2.03,0"/>
  </g>
  <path class="cls-26" d="M38.58,48.54,38.58,50.1h0M37.79,49.32h0M37.04,48.54h0M37.04,50.1h0"/>
  <path class="cls-16" d="M38.58,48.54h0M38.58,50.1h0M37.79,49.32h0M37.04,48.54h0M37.04,50.1h0"/>
  <g class="cls-29">
    <path class="cls-27" d="M43.15,54.66h0c.42,0,.8-.16,1.07-.42s.45-.61.45-1-.17-.74-.45-1-.65-.41-1.07-.41h-2.03v2.82s2.03,0,2.03,0"/>
  </g>
  <path class="cls-26" d="M43.44,52.45,43.44,54.01h0M42.65,53.23h0M41.9,52.45h0M41.9,54.01h0"/>
  <path class="cls-16" d="M43.44,52.45h0M43.44,54.01h0M42.65,53.23h0M41.9,52.45h0M41.9,54.01h0"/>
  <rect class="cls-13" x=".26" y=".26" width="72.58" height="87.2"/>
</svg>