<?xml version="1.0" encoding="UTF-8"?>
<svg xmlns="http://www.w3.org/2000/svg" width="72.87" height="84.05" viewBox="0 0 72.87 84.05">
  <defs>
    <style>
      .cls-1 {
        fill: #702c22;
      }

      .cls-2, .cls-3 {
        fill: #e28b42;
      }

      .cls-2, .cls-4 {
        mix-blend-mode: screen;
      }

      .cls-5, .cls-6, .cls-7 {
        mix-blend-mode: multiply;
      }

      .cls-5, .cls-6, .cls-8 {
        fill: #774917;
      }

      .cls-5, .cls-9 {
        opacity: .3;
      }

      .cls-10 {
        fill: #eec8c8;
      }

      .cls-9 {
        mix-blend-mode: color-dodge;
      }

      .cls-11 {
        isolation: isolate;
      }

      .cls-12 {
        fill: #e4d3d7;
      }

      .cls-13 {
        fill: #422913;
      }
    </style>
  </defs>
  <g class="cls-11">
    <g id="katman_1">
      <g>
        <g>
          <path class="cls-8" d="M41.76,81.27c.08-2.68-.52-25.12-.87-31.53-.32-6.04-.77-12.08-1.5-18.09-1.92-1.03-4.95-.42-6.93.11-.38.1-.71.24-1.01.4-.8,3.43-1.31,6.93-1.69,10.43-.4,3.67-.66,7.34-.98,11.02-.33,3.77-1.69,18.98-1.9,22.82-.1,1.87-.26,3.75-.31,5.62,2.74,2.18,6.85,2.29,10.15,1.69,1.45-.26,3.05-.69,4.54-1.35.22-.32.39-.71.51-1.12Z"/>
          <path class="cls-6" d="M36.63,62.7c1.57-.08,3.19-.3,4.71-.79-.15-5.06-.32-9.76-.45-12.17-.32-6.04-.77-12.08-1.5-18.09-1.92-1.03-4.95-.42-6.93.11-.38.1-.71.24-1.01.4-.8,3.43-1.31,6.93-1.69,10.43-.4,3.67-.66,7.34-.98,11.02-.13,1.48-.42,4.72-.73,8.35,2.83.55,5.72.88,8.59.75Z"/>
          <path class="cls-5" d="M28.22,77.18c-.23,1.86-.22,3.77-.51,5.62.46.25.94.45,1.44.62,0-1.96-.2-3.94-.19-5.9.02-2.41.19-4.82.37-7.23-.4,2.29-.82,4.58-1.1,6.88Z"/>
          <path class="cls-5" d="M37.99,73.34c-.02.08-.14.12-.2.05-.89-1.12-1.3-2.63-1.68-3.99-.5-1.79-1.02-3.6-1.27-5.44-.3-2.09.29-4.11.92-6.09.5-1.57,1.05-3.13,1.52-4.72-.1.22-.21.44-.31.66-.02.06-.07.07-.11.06-.75,1.55-1.59,3.07-2.23,4.67-.41,1.01-.77,2.05-.92,3.13-.17,1.23-.06,2.44.22,3.64.55,2.37,1.48,4.63,2.17,6.96.66,2.25,1.12,4.56,2,6.74,1.87-6.56,1.56-13.48.34-20.14-.08,4.83.53,9.68-.44,14.45Z"/>
          <path class="cls-5" d="M30.88,68.14c.28-1.86.77-3.69.91-5.58.1-1.38-.08-2.73-.22-4.09-.43,3.21-.93,6.43-.7,9.66Z"/>
          <path class="cls-5" d="M34.52,77.19c-.17,1.44-.23,2.89-.11,4.34.07.82.26,1.64.38,2.46.37-.03.74-.07,1.1-.12-.48-2.22-1.06-4.43-1.38-6.68Z"/>
          <path class="cls-5" d="M41.12,73.08c-.5,2.43-1.01,4.9-.92,7.39.03.76.08,1.53.11,2.29.31-.12.63-.24.93-.38.22-.32.39-.71.51-1.12.03-1.07-.05-5.31-.17-10.42-.16.74-.31,1.48-.46,2.22Z"/>
          <path class="cls-5" d="M28.61,66.14c.28-1.21.5-2.43.56-3.67.06-1.22-.09-2.38-.35-3.58-.14-.63-.25-1.26-.35-1.89-.33,3.73-.81,9.22-1.16,13.55.48-1.46.95-2.92,1.3-4.42Z"/>
          <path class="cls-5" d="M32.42,84.02c.03-2.2-.39-4.4-.43-6.6-.04-2.58.08-5.16.09-7.73-.36,2.95-.61,5.9-.84,8.86-.12,1.56-.12,3.08-.09,4.65,0,.23,0,.46,0,.69.42.06.84.1,1.27.13Z"/>
        </g>
        <g>
          <g>
            <path class="cls-8" d="M72.7,44.26c.36-3.82.04-10.67,0-15.06-.82-.48-2.6-1.54-2.57-1.56,1.05-.55,1.69-.77,2.58-1.27-.14-4.44-.57-10.61-1.06-14.05-1.68.17-3.03.12-2.98.09,1.4-1.02,1.36-.8,2.88-1.64-.38-1.83-1.25-4.75-1.75-5.52-1.2-1.85-3.42-2.63-5.32-3.04-2.46-.53-6.5-.92-9.4-1.25-.6,2.07-1.66,3.12-1.67,3.08-.73-1.76-.8-2.77-.89-3.5-2.99-.25-6.09-.41-9.23-.49-.21.39-.8,1.18-.81,1.11-.05-.38-.08-.76-.13-1.14-5.82-.12-12.7.13-17.99.5-1.09,1.34-1.44,3.12-1.44,3.07q-.14-1.15-.57-2.92c-1.51.14-2.96.29-4.33.46C10.07,2.14,4.88,3.55,1.85,13.43c-.72,2.34.68,5.59.61,10.34.56.25,1.63.2,1.66.82.04.7-1.78.98-2.38,1.32,0,0-.84,1.44-1.75,3.14,0,5.39,2.77,8.01,3.21,12.34,1.24.12,4.96.57,3.71.54-1.89-.05-4.8,4.14-5.94,4.64.25,1.96,2.97.3,3.25,1.09.93,2.66,2.19,5.4,8.02,6.48,1.91.36,3.13,3.24,5.08,3.97.18-.67,5.01-3.26,5.02-3.23.78,1.79,1.53.33,2.3,2.69,7.93.3,13.54.81,20.79.32,1.13-1.24,3.49-2.5,4.36-3.47.03-.03-.3-3.28-.28-3.25.66,1.01.97,2.19,1.28,3.36,3.69-.28,6.79-.58,8.86-.82,2.81-.32,4.35,2.46,6.9.8.23-.15,2.92-2.79,3.13-2.96,1.03-.86,2.37-2.51,2.92-5.56-2.7-.28-2.9-.81-2.85-.83,2.31-.76,2.15-.55,2.92-.9Z"/>
            <path class="cls-8" d="M72.7,44.26c.36-3.82.04-10.67,0-15.06-.82-.48-2.6-1.54-2.57-1.56,1.05-.55,1.69-.77,2.58-1.27-.14-4.44-.57-10.61-1.06-14.05-1.68.17-3.03.12-2.98.09,1.4-1.02,1.36-.8,2.88-1.64-.38-1.83-1.25-4.75-1.75-5.52-1.2-1.85-3.42-2.63-5.32-3.04-2.46-.53-6.5-.92-9.4-1.25-.6,2.07-1.66,3.12-1.67,3.08-.73-1.76-.8-2.77-.89-3.5-2.99-.25-6.09-.41-9.23-.49-.21.39-.8,1.18-.81,1.11-.05-.38-.08-.76-.13-1.14-5.82-.12-12.7.13-17.99.5-1.09,1.34-1.44,3.12-1.44,3.07q-.14-1.15-.57-2.92c-1.51.14-2.96.29-4.33.46C10.07,2.14,4.88,3.55,1.85,13.43c-.72,2.34.68,5.59.61,10.34.56.25,1.63.2,1.66.82.04.7-1.78.98-2.38,1.32,0,0-.84,1.44-1.75,3.14,0,5.39,2.77,8.01,3.21,12.34,1.24.12,4.96.57,3.71.54-1.89-.05-4.8,4.14-5.94,4.64.25,1.96,2.97.3,3.25,1.09.93,2.66,2.19,5.4,8.02,6.48,1.91.36,3.13,3.24,5.08,3.97.18-.67,5.01-3.26,5.02-3.23.78,1.79,1.53.33,2.3,2.69,7.93.3,13.54.81,20.79.32,1.13-1.24,3.49-2.5,4.36-3.47.03-.03-.3-3.28-.28-3.25.66,1.01.97,2.19,1.28,3.36,3.69-.28,6.79-.58,8.86-.82,2.81-.32,4.35,2.46,6.9.8.23-.15,2.92-2.79,3.13-2.96,1.03-.86,2.37-2.51,2.92-5.56-2.7-.28-2.9-.81-2.85-.83,2.31-.76,2.15-.55,2.92-.9Z"/>
            <g class="cls-4">
              <path class="cls-8" d="M58.96,13.27c3.64-1.72,6.44-4.78,9.67-7.1.4-.28.81-.54,1.22-.78-.03-.05-.05-.09-.08-.13-.42-.65-.96-1.16-1.57-1.57-3.15,3.14-6.51,6.08-9.25,9.59Z"/>
              <path class="cls-8" d="M54.04,10.77c.57-.64,1.15-1.26,1.73-1.89,1.3-1.42,2.61-2.82,3.96-4.19.96-.98,1.95-1.89,2.96-2.79-.9-.14-1.88-.27-2.89-.39-2.78,3.35-5.61,6.69-7.29,10.73.58-.4,1.06-.92,1.53-1.45Z"/>
              <path class="cls-8" d="M28.54,7.95c1.1-1.12,2.18-2.26,3.29-3.36.89-.88,1.78-1.8,2.79-2.55.93-.69,1.89-1.35,2.83-2.03-1.81.02-3.64.06-5.44.12-3.82,4.24-7.56,8.6-10.16,13.68,2.48-1.64,4.62-3.75,6.7-5.87Z"/>
              <path class="cls-8" d="M9.08,13.02c1.46-.19,2.91-.4,4.33-.73,1.61-3.79,3.26-7.56,5.15-11.22-.19.02-.38.05-.57.07-.81.1-1.59.21-2.34.33-1.45,2.37-2.89,4.74-4.25,7.16-.81,1.44-1.57,2.91-2.32,4.38Z"/>
              <path class="cls-8" d="M66.16,43.09c2.33-.2,4.46-1.21,6.69-1.84,0-.34.01-.69.01-1.04-.3.11-.59.23-.88.35-1.96.8-3.86,1.73-5.82,2.53Z"/>
              <path class="cls-8" d="M60.99,28.1c1.35.27,2.86-.56,3.99-1.19,1.29-.72,2.51-1.56,3.79-2.3,1.19-.69,2.49-1.23,3.78-1.76-.05-.95-.11-1.92-.18-2.88-1.21.72-2.41,1.46-3.58,2.24-2.65,1.76-5.91,3.24-7.8,5.9Z"/>
              <path class="cls-8" d="M61.69,53c-.39.23-.75.46-1.1.71,2.26.26,3.73,2.27,5.98.79.23-.15,2.92-2.79,3.13-2.96.67-.56,1.46-1.44,2.09-2.82-3.49,1.14-6.93,2.43-10.1,4.28Z"/>
              <path class="cls-8" d="M60.12,40.16c-.53.42-1.34.92-1.29,1.7.04.63.17,1.25.2,1.88,3.43-2.05,7.08-3.6,10.77-5.1,1.03-.42,2.04-.86,3.06-1.3-.02-1.47-.06-2.98-.09-4.4-2.25,1.09-4.5,2.17-6.69,3.37-2.07,1.14-4.1,2.38-5.96,3.85Z"/>
            </g>
            <g class="cls-7">
              <path class="cls-8" d="M39.32,5.81l1.5-1.28v-1.31s1.75-2.15,1.75-2.15h0c-.07.08-.11.13-.12.11-.05-.38-.08-.76-.13-1.14l-2.45,3.16-.56,2.62Z"/>
              <path class="cls-8" d="M49.83,8.38c.58,2.37,1.72,3.83,1.72,3.83l3.1-5.61-.73-2.52s.99-2.1,1.14-3.12c-.6,2.07-1.66,3.12-1.67,3.08-.73-1.76-.8-2.77-.89-3.5l-2.45,3.16s-.79,2.31-.21,4.68Z"/>
              <path class="cls-8" d="M60.83,16.5l8.36-1.02,2.45-3.16c-1.68.17-3.03.12-2.98.09l-1.54-.21-6.29,4.29Z"/>
              <path class="cls-8" d="M69.52,27.07l-3.42,2.16,3.56,1.78.56-.29,2.46-1.52c-.82-.48-2.6-1.54-2.57-1.56.04-.02.08-.04.12-.06h0l-.72-.51Z"/>
              <path class="cls-8" d="M69.78,45.16l-1.14-.57-7.77,2.69,5.52,1.96,2.74-1.03,3.49-2.22c-2.7-.28-2.9-.81-2.85-.83Z"/>
              <path class="cls-8" d="M21.68,10.07l1.61-5.32-.39-1.16q-.14-1.15-.57-2.92l-2.45,3.16s.18,4.42,1.81,6.23Z"/>
            </g>
            <path class="cls-3" d="M69.78,45.16c.36-3.82.5-10.05.45-14.44-.82-.48-2.6-1.33-2.57-1.35.74-.72,1.62-1.24,2.51-1.74-.15-4.44-.48-8.71-.97-12.15-1.68.17-5.03-.37-4.99-.4,1.4-1.02,2.94-1.83,4.46-2.67-.38-1.83-.83-3.23-1.33-4-1.2-1.85-3.42-2.63-5.32-3.04-2.46-.53-5.19-.96-8.09-1.29-.6,2.07-2.62,6.09-2.64,6.05-.73-1.76-1.16-5.71-1.24-6.43-2.99-.25-6.09-.41-9.23-.49-.21.39-.8,1.18-.81,1.11-.05-.38-.08-.76-.13-1.14-5.82-.12-11.69.04-16.98.41-.27,1.78-1.12,5.35-1.16,5.3-1.07-1.5-1.44-3.29-1.87-5.06-1.51.14-2.96.29-4.33.46-7.93,1-11.39,1.42-14.42,11.3C.41,17.95.08,22.18.01,26.93c.56.25,1.12.52,1.66.82.04.02-1.08.95-1.67,1.3,0,0,0,0,0,0,0,5.39.32,11.17.75,15.5,1.24.12,2.49.24,3.71.54.07.02-2.34.98-3.48,1.48.25,1.96.52,3.45.79,4.24.93,2.66,2.19,5.4,8.02,6.48,1.91.36,5.24.62,7.53.82.18-.67,1.43-5.04,1.44-5,.78,1.79.71,2.96,1.48,5.31,7.93.3,17.94-.05,25.19-.53.41-1.25.65-2.6,1.53-3.58.03-.03.08-.02.1.01.66,1.01.97,2.19,1.28,3.36,3.69-.28,6.79-.58,8.86-.82,3.06-.35,6.98-.37,9.55-2.52,1.03-.86,1.81-3.1,2.37-6.14-2.7-.28-6.48-1.21-6.42-1.23,2.3-.76,6.31-1.47,7.07-1.82Z"/>
            <g class="cls-4">
              <path class="cls-10" d="M69.13,48.21c-1.15-.11-2.29-.31-3.42-.52-.57-.11-1.13-.23-1.7-.35l-.84-.19c-.14-.03-.28-.07-.42-.11h-.03s-.01-.01-.01-.01h0s0,0,0,0c0-.02-.03.04,0-.07.04-.02.04-.01.06-.02l.1-.03.21-.06c.28-.08.55-.18.83-.25l.84-.23c.56-.14,1.12-.28,1.68-.41l1.68-.4c.28-.07.56-.13.84-.21l.42-.11.4-.14-.05.07.12-1.8c.03-.6.09-1.2.11-1.8l.06-1.8.03-.9c0-.3.03-.6.03-.9l.05-3.61v-3.61s.06.12.06.12c-.43-.24-.87-.47-1.31-.69l-.67-.34-.33-.17-.17-.09s-.05-.03-.1-.06l-.02-.02h0s-.02-.04-.03-.06c-.02-.05,0-.12.02-.15,0-.01.03-.04.03-.03h0s0,0,0,0l.02-.02.03-.03.28-.25c.1-.08.18-.17.28-.24.21-.15.41-.3.62-.45l.64-.4.65-.38-.08.15-.14-3.04c-.02-.51-.07-1.01-.1-1.52l-.11-1.52c-.03-.51-.09-1.01-.14-1.52l-.15-1.51c-.05-.51-.12-1.01-.18-1.51l-.19-1.51.22.17c-.44.04-.87.04-1.3.03-.43-.01-.86-.05-1.29-.09-.43-.04-.85-.09-1.28-.14l-.64-.09-.32-.05-.16-.03h-.05s-.04-.02-.04-.02h0s-.02-.01-.03-.02c0,0-.02-.01-.03-.02.05.09-.19-.19-.02-.32l.03-.02h0s.07-.05.07-.05l.53-.36c.18-.12.35-.24.53-.36l1.11-.67c.74-.42,1.49-.84,2.23-1.25l-.1.23c-.16-.76-.34-1.51-.58-2.24-.12-.37-.25-.72-.4-1.07-.16-.35-.34-.65-.58-.96-.22-.28-.49-.55-.78-.8-.29-.24-.6-.45-.93-.64-.66-.37-1.37-.65-2.11-.87-.37-.11-.75-.2-1.11-.28l-1.15-.21-2.3-.42c-.38-.08-.77-.12-1.15-.18l-1.15-.16-2.31-.31.25-.17c-.16.54-.35,1.06-.56,1.57-.21.51-.42,1.02-.65,1.52-.23.5-.46,1-.7,1.5l-.36.74c-.13.25-.24.48-.39.75l-.02.02-.02.02c-.05.2-.53-.1-.39-.08h0s0-.03,0-.03l-.02-.05-.03-.1-.07-.19-.13-.39-.21-.82c-.07-.27-.11-.54-.17-.81-.06-.27-.1-.54-.15-.82-.05-.27-.09-.54-.13-.82-.04-.27-.08-.55-.12-.82-.07-.55-.14-1.09-.21-1.64l.2.19-4.6-.31-4.61-.18.19-.11c-.11.2-.23.38-.35.56-.13.18-.25.35-.39.52-.02.02-.04.04-.07.07,0,0-.02.02-.03.03,0,0-.02.02-.04.02.01,0-.1.07-.21,0-.04-.02-.08-.07-.09-.11,0-.02-.01-.05-.01-.05h0s0,0,0,0h0s0-.03,0-.03l-.02-.16-.04-.31-.07-.63.2.18-4.24-.04-4.24.05c-.35,0-.71.02-1.06.03l-1.06.03-2.12.07c-.35.01-.71.04-1.06.05l-1.06.06-2.12.12.16-.14c-.15.9-.34,1.79-.53,2.67l-.3,1.32-.16.66-.08.33-.05.17-.02.08v.04s-.02.03-.02.03v.02s0,0-.02.02v.02s.01-.01-.06.04c-.15.07-.24-.1-.21-.05h0s0,0,0,0h0s-.01-.03-.01-.03l-.02-.04-.05-.07-.09-.14-.18-.29-.32-.62-.27-.63-.23-.65-.2-.66-.17-.66-.32-1.32.14.1-3.04.32c-.51.05-1.01.1-1.52.16l-1.52.19c-1.01.13-2.02.27-3.01.47-.5.1-.99.22-1.48.35-.49.14-.97.31-1.43.5-.46.2-.91.44-1.34.71-.42.28-.82.59-1.19.93-.36.35-.71.72-1.02,1.13-.16.2-.3.41-.45.62-.13.21-.28.42-.41.64-.13.22-.26.44-.37.66-.12.22-.24.45-.34.68-.11.23-.22.46-.32.69-.11.23-.2.47-.3.7-.1.23-.19.47-.28.71-.09.24-.18.48-.26.72-.17.48-.33.97-.48,1.45.15-.49.3-.97.47-1.46.08-.24.17-.48.25-.72.08-.24.17-.48.27-.72.09-.24.19-.47.29-.71.1-.24.2-.47.31-.7.11-.23.22-.46.34-.69.11-.23.24-.45.37-.67.12-.22.27-.43.4-.65.15-.21.29-.42.44-.63.3-.41.65-.79,1.01-1.15.37-.35.77-.67,1.2-.96.43-.28.88-.52,1.35-.73.47-.21.95-.38,1.44-.53.49-.14.99-.27,1.49-.37,1-.21,2.01-.36,3.02-.51l1.52-.2c.51-.06,1.01-.11,1.52-.17l3.04-.34h.11s.03.1.03.1l.33,1.32.18.65.2.64.23.63.26.61.31.58.18.28.09.14.05.07.02.04v.02s.02,0,.02,0h0s0,0,0,0c.04.05-.05-.12-.2-.05-.07.06-.03.02-.04.04h0s0,.02,0,.02c0,0,0,0,0,0h0s.01-.05.01-.05l.02-.08.04-.16.08-.33.16-.66.3-1.32c.19-.88.37-1.77.51-2.65l.02-.14h.13s2.12-.14,2.12-.14l1.06-.07c.35-.02.71-.05,1.06-.06l2.12-.08,1.06-.04c.35-.01.71-.03,1.06-.04l4.25-.06,4.25.03h.18s.02.18.02.18l.07.63.04.31.02.16v.02s0,0,0,0h0s0-.02-.01-.04c-.01-.04-.05-.08-.09-.1-.1-.07-.21,0-.2,0,0,0-.02.02-.02.01,0,0,0,0,0,0,0,0,.02-.03.04-.04.13-.15.25-.32.37-.49.12-.17.23-.34.33-.51l.06-.12h.13s4.62.18,4.62.18l4.62.3h.18s.02.19.02.19c.06.55.13,1.09.21,1.63.04.27.08.54.12.81.04.27.08.54.13.81.05.27.09.54.15.8.06.26.11.54.17.8l.2.78.13.39.07.19.03.1.02.05v.02s0,0,0,0c.15.02-.33-.28-.38-.08,0,0,0,.01-.01.02,0,.01,0,0,0,0,.12-.21.25-.47.37-.71l.36-.74c.24-.49.46-.99.69-1.49.22-.5.44-1,.64-1.51.2-.51.39-1.02.54-1.53l.06-.19.19.03,2.33.32,1.16.16c.39.05.78.1,1.16.18l2.3.43,1.15.21c.4.09.77.18,1.16.29.76.22,1.51.52,2.2.91.35.2.68.43.99.69.31.26.59.55.85.88.23.3.46.68.62,1.04.16.37.3.74.42,1.12.24.75.42,1.52.58,2.29l.03.15-.14.07c-.75.41-1.49.82-2.23,1.24l-1.08.65c-.18.11-.35.24-.53.35l-.53.36-.07.04h0s0,0,0,0c0,0-.02.02.02-.02.17-.13-.06-.41-.01-.32,0,0-.01,0-.02-.01,0,0-.02,0-.02-.01h0s0,0,0,0h.03s.15.04.15.04l.31.05.63.09c.42.06.84.11,1.26.15.42.04.84.07,1.26.09.42.01.84.02,1.25-.02l.2-.02.02.19.19,1.52c.06.51.13,1.01.18,1.52l.14,1.52c.04.51.1,1.01.13,1.52l.1,1.52c.03.51.07,1.02.09,1.52l.12,3.05v.1s-.08.05-.08.05l-.65.37-.63.39c-.2.14-.39.28-.59.42-.1.07-.19.16-.28.24l-.28.24-.04.03h-.02s0,.02,0,.02h0s.02-.02.03-.03c.02-.03.04-.1.02-.14,0-.02-.02-.04-.03-.05h0s0-.01,0-.01l.06.04.16.09.33.17.67.34c.44.23.89.46,1.32.71l.07.04v.08s-.01,3.62-.01,3.62l-.08,3.61c0,.3-.02.6-.03.9l-.04.9-.08,1.81c-.02.6-.09,1.2-.13,1.8l-.14,1.8v.05s-.05.02-.05.02l-.42.14-.42.11c-.28.08-.56.14-.84.2l-1.69.38c-.56.12-1.12.26-1.69.39l-.84.21c-.28.07-.56.16-.83.24l-.21.06-.1.03s-.04.01-.04.01c.02-.11,0-.05,0-.06h0s0,0,0,0h.01s.02.01.02.01c.14.04.28.08.42.11l.84.2c.56.13,1.12.25,1.69.37,1.13.23,2.27.43,3.42.56Z"/>
            </g>
          </g>
          <g class="cls-9">
            <path class="cls-12" d="M51.28,10.13s.71-1.34,1.4-2.89c-.64.41-1.26.84-1.88,1.27.14.62.3,1.19.48,1.62Z"/>
            <path class="cls-12" d="M15.64,47.71c2.31-2.13,4.54-4.31,6.71-6.59,1.78-1.87,3.64-4.12,4.22-6.7,1.22-5.41-11.21-1.42-13.27-.82-1.54.45-3.05.98-4.61,1.33-1.5.34-3,.68-4.47,1.14-1.38.43-2.7,1.04-3.96,1.76,0,.1,0,.2.02.3,1.07-.57,2.18-1.06,3.34-1.44,2.51-.82,5.16-1.16,7.7-1.87,2.64-.74,5.28-1.54,7.99-1.96,1.29-.2,2.6-.29,3.91-.37,1.42-.08,2.68.49,2.67,2.08-.01,1.44-1.24,3.03-2.07,4.13-.78,1.03-1.7,1.92-2.57,2.88-1.9,2.09-4.01,4-6.1,5.91-2.13,1.95-4.51,3.57-6.79,5.34-1.11.87-2.29,1.76-3.52,2.56.05.04.11.08.16.12,1.14-.71,2.27-1.43,3.35-2.24,2.47-1.83,5.02-3.47,7.3-5.56Z"/>
            <path class="cls-12" d="M9.9,47.76c1.78-1.33,3.44-2.69,4.93-4.33.69-.77,1.28-1.6,1.92-2.4.42-.52.9-1.25.87-1.95-.14-3.76-7.51-.97-9.24-.53-2.14.54-4.29,1.31-6.32,2.18-.54.23-1.07.51-1.58.8.01.15.02.29.03.44,1.63-.84,3.4-1.42,5.15-1.95,1.65-.5,3.32-.97,4.98-1.44,1.66-.46,3.74-.94,5.38-.2,2.06.92-.46,3.47-1.32,4.46-1.44,1.65-3.1,3-4.82,4.35-1.46,1.15-2.92,2.29-4.4,3.41-.78.59-1.62,1.11-2.39,1.71-.07.05-.27.24-.52.47.04.07.08.15.12.22.46-.36.95-.69,1.42-1,1.99-1.3,3.87-2.81,5.77-4.24Z"/>
            <path class="cls-12" d="M6.67,48.23c1.12-1.08,2.12-2.31,3.03-3.57.49-.67,1.63-1.98,1.61-2.91-.01-.69-.52-.88-1.17-.82-1.26.13-2.53.49-3.76.78-2.14.5-3.85,1.65-5.64,2.73,0,.04,0,.08.01.12.1,0,.2.02.3.03.81-.51,1.6-1.04,2.47-1.46,1.21-.58,2.53-.84,3.83-1.1.86-.17,1.78-.44,2.66-.46,1.53-.03-.09,2-.46,2.58-.85,1.34-1.93,2.57-3.03,3.72-1.01,1.06-2.26,1.77-3.51,2.5-.39.23-.77.48-1.15.72.05.14.1.27.15.41.4-.28.8-.56,1.22-.8,1.24-.72,2.39-1.47,3.43-2.47Z"/>
            <path class="cls-12" d="M3.5,48.34c.68-.73,1.43-1.57,1.76-2.52.38-1.11-.96-.46-1.4-.22-.85.45-1.67.91-2.43,1.52-.11.09-.22.19-.33.29.02.12.03.24.05.36.09-.08.19-.17.28-.24.56-.45,1.2-.83,1.83-1.17.15-.08,1.67-.84,1.47-.28-.26.71-.93,1.4-1.44,1.95-.5.55-1.1,1.31-1.75,1.91.03.13.06.25.09.36.72-.58,1.36-1.38,1.88-1.95Z"/>
            <path class="cls-12" d="M52.69,7.24c.08-.18.16-.36.24-.54-.74.48-1.47.97-2.2,1.47.03.12.05.23.08.34.62-.43,1.25-.86,1.88-1.27Z"/>
            <path class="cls-12" d="M54.45,6.12c.91-.55,1.84-1.08,2.77-1.61-.18-.03-.35-.05-.53-.08-.71.41-1.42.82-2.13,1.24-.55.33-1.1.67-1.64,1.02-.08.18-.16.36-.24.54.58-.38,1.17-.75,1.77-1.12Z"/>
            <path class="cls-12" d="M12.59,31.44c6.18-1.9,12.21-4.1,17.79-7.43,2.74-1.63,5.38-3.39,7.91-5.33,2.7-2.07,5.18-4.41,7.8-6.58,1.53-1.26,3.1-2.46,4.71-3.59-.03-.11-.05-.23-.08-.34-1.35.94-2.66,1.92-3.95,2.95-2.63,2.1-5.13,4.37-7.81,6.4-2.71,2.05-5.5,3.93-8.4,5.7-5.74,3.49-12.07,5.69-18.46,7.68-3.08.96-6.17,1.93-9.14,3.21-.97.41-1.91.88-2.84,1.37,0,.16.01.33.02.49.88-.43,1.76-.85,2.66-1.23,3.15-1.34,6.49-2.28,9.77-3.28Z"/>
            <path class="cls-12" d="M24.91,21.74c4.52-3.19,8.12-7.48,12.51-10.83,2.21-1.68,4.51-3.25,6.82-4.78,1.28-.85,2.61-1.67,3.88-2.58-.24-.02-.48-.03-.72-.05-3.17,2.23-6.48,4.27-9.62,6.57-4.44,3.25-8.11,7.43-12.52,10.72-4.33,3.23-9.71,5.05-14.56,7.36-3.54,1.69-7.12,3.29-10.63,5.03,0,.13,0,.26.01.39,3.46-1.6,6.99-3.06,10.44-4.67,4.81-2.26,10.03-4.09,14.4-7.17Z"/>
            <path class="cls-12" d="M21.27,19.43c4.43-2.84,8.47-6.25,12.77-9.28,3.13-2.21,6.22-4.49,9.24-6.86-.19,0-.38-.01-.57-.02-2.87,2.11-5.76,4.2-8.67,6.25-4.3,3.03-8.37,6.38-12.76,9.27-4.46,2.93-9.3,4.85-14.16,6.97-2.38,1.04-4.56,2.42-6.79,3.74-.1.06-.21.12-.31.18,0,.15,0,.3,0,.45,2.5-1.51,5.05-2.92,7.73-4.02,4.71-1.93,9.24-3.93,13.54-6.69Z"/>
            <path class="cls-12" d="M7.55,23.04c3.66-1.89,7.26-3.76,10.4-6.44,3.31-2.82,6.31-5.96,9.9-8.45,2.59-1.79,5.38-3.31,8.04-5-.27,0-.55,0-.82,0-2.17,1.3-4.38,2.56-6.52,3.91-3.4,2.15-6.26,4.92-9.19,7.64-1.56,1.45-3.23,2.91-5.07,4-1.89,1.13-3.85,2.14-5.78,3.19-1.84,1.01-3.72,1.93-5.6,2.88-.92.46-1.82.95-2.7,1.48-.06.04-.13.08-.19.12,0,.13,0,.26,0,.39.52-.28,1.03-.55,1.56-.81,1.99-.96,4-1.89,5.97-2.9Z"/>
            <path class="cls-12" d="M15.23,13.96c5.15-3.15,9.85-6.94,14.55-10.71-.18,0-.37.01-.55.02-1.65,1.21-3.28,2.44-4.86,3.75-2.87,2.38-6.14,4.49-9.32,6.43-3.24,1.98-6.89,3.16-10.45,4.42-1.48.52-2.88,1.18-4.22,1.94-.01.14-.03.28-.04.42,1.62-.93,3.46-1.48,5.23-2.06,3.36-1.1,6.64-2.35,9.67-4.2Z"/>
            <path class="cls-12" d="M6.5,15.84c3.03-1.45,6.06-3.27,8.77-5.26,1.91-1.4,3.44-3.17,5.09-4.83-.05-.18-.1-.37-.15-.55-1.73,1.69-3.3,3.51-5.28,4.96-2.77,2.04-5.93,3.86-9.03,5.34-1.69.81-3.51,1.45-5.24,2.22-.03.18-.06.37-.09.56.45-.16.91-.32,1.36-.49,1.55-.58,3.07-1.24,4.57-1.95Z"/>
            <path class="cls-12" d="M9.5,11.38c3.09-2.38,6.19-4.8,9.1-7.42-.15.01-.3.03-.44.05-3.01,2.55-6.19,4.93-9.32,7.29-2.27,1.71-4.7,2.91-7.31,4.01-.12.05-.24.11-.36.16-.01.05-.03.09-.04.14-.05.17-.1.36-.15.55.72-.33,1.48-.61,2.2-.91,2.29-.95,4.37-2.36,6.33-3.87Z"/>
            <path class="cls-12" d="M9.38,7.91c1.44-.99,2.75-2.17,4.08-3.34-.23.03-.45.06-.67.1-.9.75-1.8,1.48-2.7,2.22-1.46,1.2-3.16,2.16-4.73,3.19-1.04.68-2.03,1.42-3.03,2.15-.05.12-.1.25-.15.37.81-.56,1.61-1.13,2.45-1.66,1.59-1,3.2-1.97,4.76-3.04Z"/>
            <path class="cls-12" d="M56.65,10.37c-1.48.84-2.86,1.84-4.35,2.68-1.66.93-3.33,1.83-4.96,2.79-1.51.89-2.99,1.84-4.51,2.72-1.49.87-3.06,1.62-4.53,2.53-1.42.89-2.8,1.87-4.2,2.79-1.38.9-2.71,1.86-3.88,3.03-.34.35-1.09.99-1.09,1.54,0,1,1.74.24,2.12.08,3.21-1.28,6.08-3.3,9.31-4.57,6.54-2.58,13.1-5.18,19.55-7.98,2.15-.93,4.44-1.73,6.41-3.02.68-.44,1.28-.99,1.91-1.5-.05-.2-.1-.4-.15-.59-.59.47-1.14.99-1.76,1.43-.84.6-1.81,1.01-2.75,1.42-3.3,1.42-6.61,2.81-9.93,4.19-3.25,1.35-6.48,2.7-9.7,4.13-1.51.67-3.09,1.13-4.61,1.79-1.65.72-3.23,1.58-4.81,2.44-1.43.78-3.06,1.99-4.73,2.09-.7.04-.1-.49-.05-.55.3-.37.59-.73.94-1.05.77-.72,1.66-1.32,2.53-1.92,3-2.06,6.09-3.86,9.25-5.67,3.17-1.81,6.28-3.74,9.47-5.52,3.02-1.69,6.01-3.59,8.75-5.71.79-.61,1.54-1.27,2.35-1.87.12-.09.25-.18.38-.27-.06-.02-.12-.04-.18-.06-.63.4-1.26.8-1.85,1.25-1.59,1.22-3.21,2.37-4.95,3.36Z"/>
            <path class="cls-12" d="M60.11,9.79c-1.11.8-2.06,1.93-3.21,2.65-.79.5-1.38,1.15-1.72,2.02-.03.07-.07.19,0,.25.71.57,2.31-.46,2.94-.77,1.72-.86,3.4-1.88,5.15-2.67,1.41-.63,2.63-1.46,3.79-2.47.11-.1.22-.19.33-.28-.02-.04-.05-.08-.07-.12-.05-.08-.11-.16-.17-.24-.83.72-1.7,1.41-2.67,1.95-1.25.69-2.54,1.33-3.81,2-1.31.69-2.67,1.53-4.08,1.98-1.64.52-.07-.92.57-1.32.56-.35,1.1-1,1.61-1.43,1.16-.96,2.37-1.85,3.59-2.74.96-.7,1.96-1.36,2.92-2.07-.08-.05-.16-.09-.24-.13-.42.26-.83.49-1.17.73-1.27.86-2.51,1.76-3.75,2.66Z"/>
            <path class="cls-12" d="M22.56,47.86c2.56-2.41,5.22-4.71,7.79-7.11,2.63-2.46,5.14-5.03,7.8-7.46,2.54-2.33,5-4.61,7.93-6.46,2.95-1.86,5.97-3.54,9.06-5.15,1.56-.82,3.23-1.4,4.79-2.22,1.55-.82,3.15-1.54,4.72-2.31,1.07-.53,2.13-1.08,3.19-1.64-.3-.01-.62-.03-.92-.06-.7.35-1.4.7-2.1,1.05-3.14,1.54-6.36,2.93-9.49,4.48-5.75,2.85-11.41,6.17-16.03,10.67-5.11,4.97-10.35,9.8-15.61,14.61-2.53,2.31-4.97,4.73-7.57,6.97-1.66,1.43-3.3,2.96-5.08,4.27.18.03.37.05.56.07,1.23-.96,2.4-2.02,3.59-3.02,2.54-2.14,4.99-4.41,7.41-6.68Z"/>
            <path class="cls-12" d="M42.76,39.42c2.91-1.32,5.76-2.78,8.64-4.15,3.01-1.44,6.11-2.7,9.15-4.08,2.76-1.25,5.36-2.6,7.94-4.2.53-.33,1.07-.66,1.61-.98-.01-.24-.02-.47-.03-.71-.98.6-1.96,1.22-2.95,1.81-2.74,1.64-5.55,2.92-8.47,4.21-5.93,2.63-11.73,5.49-17.61,8.22-2.79,1.29-5.58,2.61-8.28,4.1-2.63,1.45-5.12,3.18-7.57,4.9-2.2,1.55-4.17,3.32-6.24,5.01.04.12.09.23.13.35,2.29-1.97,4.68-3.81,7.17-5.51,5.22-3.58,10.76-6.36,16.52-8.96Z"/>
            <path class="cls-12" d="M17.92,54.37c-1.12.88-2.14,1.9-3.19,2.86-.22.2-.44.4-.66.6.09,0,.18.02.27.03,1.31-1.16,2.72-2.24,4.03-3.35.07-.23.13-.44.18-.63-.21.17-.41.33-.62.5Z"/>
            <path class="cls-12" d="M56.42,24.13c-1.33.76-2.67,1.48-3.97,2.3-1.5.94-2.86,2.17-4.22,3.29-1.11.91-2.09,1.92-3.14,2.88-.54.49-1.16.95-1.39,1.67-.26.84,1.51.3,1.75.24,1.63-.41,3.16-1.25,4.71-1.91,3.4-1.45,6.74-3.1,10.02-4.79,3.25-1.68,6.38-3.57,9.57-5.38.05-.03.09-.05.14-.07-.01-.17-.02-.34-.04-.5-.49.28-.98.56-1.47.84-2.66,1.54-5.32,3.08-8.05,4.5-2.76,1.44-5.58,2.78-8.41,4.07-1.32.61-2.66,1.17-3.99,1.75-.72.32-1.43.63-2.2.82-.57.14-1.83.35-.93-.48,1.94-1.8,3.91-3.5,5.96-5.18,2.33-1.9,5.09-3.24,7.71-4.7,2.61-1.45,5.28-2.76,7.92-4.16,1.02-.54,2.04-1.11,3.06-1.67-.02-.14-.03-.28-.05-.42-1.21.64-2.41,1.3-3.62,1.92-3.16,1.61-6.29,3.2-9.37,4.96Z"/>
            <path class="cls-12" d="M30.83,50.2c5.09-1.84,9.72-4.44,14.58-6.78,2.48-1.19,4.92-2.32,7.29-3.73,2.43-1.44,4.76-3.03,7.17-4.49,3.02-1.83,6.19-3.56,9.49-4.95-.17-.09-.34-.17-.51-.26-2.78,1.16-5.46,2.6-8.1,4.11-2.44,1.39-4.74,3.02-7.15,4.47-2.61,1.57-5.28,2.87-8.03,4.18-2.55,1.21-5.02,2.59-7.55,3.85-2.52,1.26-5.11,2.22-7.75,3.21-3.93,1.47-7.46,3.72-10.62,6.42.03.12.06.25.09.38.99-.86,2.09-1.62,3.16-2.37,2.45-1.72,5.11-3.03,7.92-4.05Z"/>
            <path class="cls-12" d="M31.95,53.31c5.42-2.11,10.84-4.27,16.03-6.91,5.31-2.71,10.69-5.16,16.24-7.36,2.24-.89,4.09-1.98,6-3.32,0-.21,0-.43,0-.64-1.7,1.2-3.42,2.28-5.43,3.06-5.69,2.22-11.19,4.75-16.63,7.51-5.33,2.71-10.88,4.93-16.44,7.11-2.7,1.06-5.14,2.69-7.65,4.13-.8.46-1.56,1-2.3,1.58.2,0,.4.01.59.01.62-.45,1.26-.87,1.94-1.25,2.52-1.4,4.95-2.89,7.64-3.93Z"/>
            <path class="cls-12" d="M41.1,52.05c2.34-.83,4.68-1.65,6.99-2.57,4.63-1.84,9.07-4.06,13.56-6.21,2.85-1.37,5.67-2.78,8.48-4.21,0-.15,0-.29.01-.44-2.64,1.26-5.28,2.52-7.92,3.79-4.61,2.21-9.21,4.46-13.96,6.38-2.38.96-4.8,1.8-7.22,2.66-2.25.8-4.28,1.8-6.32,3.05-2.04,1.25-4.08,2.41-6.24,3.44-.46.22-.95.41-1.45.6.46,0,.91,0,1.37,0,2.03-.95,3.97-2.02,5.87-3.2,2.19-1.36,4.39-2.42,6.82-3.28Z"/>
            <path class="cls-12" d="M63.07,51c-3.48,1.15-7,2.18-10.45,3.43-1.57.57-3.13,1.16-4.7,1.75.07.2.13.4.19.6,3.17-1.19,6.35-2.35,9.59-3.34,3.74-1.14,7.47-2.32,11.12-3.74.06-.27.12-.54.18-.83-1.96.76-3.94,1.46-5.93,2.12Z"/>
            <path class="cls-12" d="M42.84,58.06c.77-.04,1.52-.09,2.25-.14.13-.05.26-.1.39-.15.08-.25.15-.5.23-.76-.95.35-1.91.7-2.87,1.04Z"/>
            <path class="cls-12" d="M36.92,57.27c6.84-3.22,13.73-6.32,20.53-9.62,2.98-1.44,5.96-2.88,8.99-4.23,1.2-.54,2.37-1.11,3.58-1.63,0-.17.02-.33.03-.5-1.45.59-2.85,1.26-4.28,1.9-3.42,1.52-6.79,3.17-10.17,4.79-3.38,1.63-6.8,3.18-10.21,4.75-3.4,1.56-6.92,3.01-10.21,4.8-.59.32-1.18.62-1.79.92.43-.01.87-.02,1.3-.04.74-.39,1.48-.78,2.24-1.14Z"/>
            <path class="cls-12" d="M63.29,47.13c.1-.04.19-.08.29-.12.63-.26,1.26-.52,1.88-.79-.99.24-1.97.49-2.76.75-.01,0,.21.07.58.16Z"/>
            <path class="cls-12" d="M62.87,46.87c-1.86.73-3.71,1.51-5.55,2.3-.63.27-2.22.59-2.43,1.42-.21.87,1.2.6,1.66.52,2.03-.36,4.1-1.13,6.08-1.71,1.55-.45,3.08-.95,4.61-1.46-.4-.07-.79-.14-1.18-.21-.18.06-.36.12-.54.18-1.71.56-3.45,1.07-5.19,1.54-1.45.4-3.05,1.13-4.57,1.05-.65-.04-.38.03,0-.12.26-.1.51-.21.76-.33.7-.31,1.39-.63,2.08-.94,1.54-.7,3.11-1.35,4.67-1.99-.38-.09-.6-.15-.58-.16.79-.26,1.77-.51,2.76-.75,1.03-.44,2.07-.88,3.11-1.29.42-.17.84-.32,1.27-.47,0-.11.02-.22.03-.33-.26.09-.53.18-.79.28-2.08.78-4.14,1.64-6.21,2.46Z"/>
            <path class="cls-12" d="M56.06,56.99c.41-.04.8-.09,1.16-.13.23-.03.46-.05.7-.07.84-.39,1.68-.76,2.55-1.07,2.27-.83,4.51-1.72,6.76-2.59.18-.07.37-.14.55-.21.08-.17.16-.36.24-.55-2.14.77-4.28,1.56-6.42,2.35-1.88.69-3.72,1.48-5.54,2.29Z"/>
          </g>
          <path class="cls-2" d="M16.09,6.27s-8.84-.06-11.64,5.43c-2.8,5.49-5.25,14.95,2.2,14.07,7.45-.88,18.07-20.4,9.44-19.5Z"/>
          <path class="cls-2" d="M4.82,29.37s-2.52-.29-2.92,3.35c-.26,2.35-.37,6.06,2.28,4.96,2.65-1.11,3.73-9.54.64-8.31Z"/>
        </g>
        <g>
          <path class="cls-13" d="M36.09,53.82c0,1.07-.87,1.94-1.94,1.94s-1.94-.87-1.94-1.94.87-1.94,1.94-1.94,1.94.87,1.94,1.94Z"/>
          <path class="cls-2" d="M34.02,53.16c0,.35-.29.64-.64.64s-.64-.29-.64-.64.29-.64.64-.64.64.29.64.64Z"/>
        </g>
        <g>
          <path class="cls-13" d="M36.09,7.6c0,1.07-.87,1.94-1.94,1.94s-1.94-.87-1.94-1.94.87-1.94,1.94-1.94,1.94.87,1.94,1.94Z"/>
          <path class="cls-2" d="M34.02,6.93c0,.35-.29.64-.64.64s-.64-.29-.64-.64.29-.64.64-.64.64.29.64.64Z"/>
        </g>
      </g>
      <path class="cls-1" d="M28.02,16.14c5.77,0,11.54-.15,17.32-.18-.09.16-.18.32-.27.48-1.52,2.65-3.08,5.28-4.65,7.89-3.45,5.73-6.98,11.41-10.63,16.99-1.37,2.1-2.75,4.21-4.26,6.19-1.21,1.6,4.64,3.73,5.81,2.19,3.19-4.19,5.97-8.79,8.79-13.28,3.51-5.58,6.96-11.22,10.26-16.95.63-1.1,1.27-2.2,1.89-3.31.27-.55.62-1.19.68-1.83.03-.31,0-.55-.09-.75-.41-.94-1.95-.81-2.71-.84-6.39-.23-12.82.08-19.21.16-1.84.02-3.68.04-5.52.04-.74,0-2.47.39-1.51,1.58.94,1.16,2.75,1.63,4.09,1.63Z"/>
    </g>
  </g>
</svg>