<?xml version="1.0" encoding="UTF-8"?>
<svg xmlns="http://www.w3.org/2000/svg" width="209.11" height="88.02" viewBox="0 0 209.11 88.02">
  <defs>
    <style>
      .cls-1, .cls-2 {
        fill: #e28b42;
      }

      .cls-1, .cls-3 {
        mix-blend-mode: screen;
      }

      .cls-4, .cls-5, .cls-6 {
        mix-blend-mode: multiply;
      }

      .cls-4, .cls-5, .cls-7 {
        fill: #774917;
      }

      .cls-4, .cls-8 {
        opacity: .3;
      }

      .cls-9 {
        fill: #eec8c8;
      }

      .cls-8 {
        mix-blend-mode: color-dodge;
      }

      .cls-10 {
        isolation: isolate;
      }

      .cls-11 {
        fill: #e4d3d7;
      }

      .cls-12 {
        fill: #422913;
      }
    </style>
  </defs>
  <g class="cls-10">
    <g id="katman_1">
      <g>
        <g>
          <path class="cls-7" d="M109.12,85.24c.08-2.68-.53-25.12-.87-31.53-.32-6.04-.77-12.08-1.5-18.09-1.92-1.03-4.95-.42-6.93.11-.38.1-.71.24-1.01.4-.8,3.43-1.31,6.93-1.69,10.43-.4,3.67-.66,7.34-.98,11.02-.33,3.77-1.69,18.98-1.9,22.82-.1,1.87-.26,3.75-.31,5.62,2.74,2.18,6.85,2.29,10.15,1.69,1.45-.26,3.05-.69,4.54-1.35.22-.32.39-.71.51-1.12Z"/>
          <path class="cls-5" d="M103.99,66.67c1.57-.08,3.19-.3,4.71-.79-.15-5.06-.32-9.76-.45-12.17-.32-6.04-.77-12.08-1.5-18.09-1.92-1.03-4.95-.42-6.93.11-.38.1-.71.24-1.01.4-.8,3.43-1.31,6.93-1.69,10.43-.4,3.67-.66,7.34-.98,11.02-.13,1.48-.42,4.72-.73,8.35,2.83.55,5.72.88,8.59.75Z"/>
          <path class="cls-4" d="M95.58,81.14c-.23,1.86-.22,3.77-.51,5.62.46.25.94.45,1.44.62,0-1.96-.2-3.94-.19-5.9.02-2.41.19-4.82.37-7.23-.4,2.29-.82,4.58-1.1,6.88Z"/>
          <path class="cls-4" d="M105.35,77.31c-.02.08-.14.12-.2.05-.89-1.12-1.3-2.63-1.68-3.99-.5-1.79-1.02-3.6-1.27-5.44-.3-2.09.29-4.11.92-6.09.5-1.57,1.05-3.13,1.52-4.72-.1.22-.21.44-.31.66-.02.06-.07.07-.11.06-.75,1.55-1.59,3.07-2.23,4.67-.41,1.01-.77,2.05-.92,3.13-.17,1.23-.06,2.44.22,3.64.55,2.37,1.48,4.63,2.17,6.96.66,2.25,1.12,4.56,2,6.74,1.87-6.56,1.56-13.48.34-20.14-.08,4.83.53,9.68-.44,14.45Z"/>
          <path class="cls-4" d="M98.24,72.11c.28-1.86.77-3.69.91-5.58.1-1.38-.08-2.73-.22-4.09-.43,3.21-.93,6.43-.7,9.66Z"/>
          <path class="cls-4" d="M101.89,81.15c-.17,1.44-.23,2.89-.11,4.34.07.82.26,1.64.38,2.46.37-.03.74-.07,1.1-.12-.48-2.22-1.06-4.43-1.38-6.68Z"/>
          <path class="cls-4" d="M108.48,77.04c-.5,2.43-1.01,4.9-.92,7.39.03.76.08,1.53.11,2.29.31-.12.63-.24.93-.38.22-.32.39-.71.51-1.12.03-1.07-.05-5.31-.17-10.42-.16.74-.31,1.48-.46,2.22Z"/>
          <path class="cls-4" d="M95.97,70.1c.28-1.21.5-2.43.56-3.67.06-1.22-.09-2.38-.35-3.58-.14-.63-.25-1.26-.35-1.89-.33,3.73-.81,9.22-1.16,13.55.48-1.46.95-2.92,1.3-4.42Z"/>
          <path class="cls-4" d="M99.78,87.99c.03-2.2-.39-4.4-.43-6.6-.04-2.58.08-5.16.09-7.73-.36,2.95-.61,5.9-.84,8.86-.12,1.56-.12,3.08-.09,4.65,0,.23,0,.46,0,.69.42.06.84.1,1.27.13Z"/>
        </g>
        <g>
          <g>
            <path class="cls-7" d="M208.62,44.26c1.04-3.82.12-10.67-.03-15.06-2.35-.48-7.47-1.54-7.37-1.56,3.03-.55,4.85-.77,7.4-1.27-.41-4.44-1.64-10.61-3.05-14.05-4.81.17-8.69.12-8.56.09,4.03-1.02,3.9-.8,8.26-1.64-1.1-1.83-3.6-4.75-5.03-5.52-3.44-1.85-9.81-2.63-15.26-3.04-7.05-.53-18.66-.92-26.98-1.25-1.71,2.07-4.76,3.12-4.8,3.08-2.08-1.76-2.31-2.77-2.56-3.5-8.57-.25-17.49-.41-26.47-.49-.6.39-2.29,1.18-2.32,1.11-.13-.38-.24-.76-.38-1.14-16.71-.12-36.45.13-51.63.5-3.12,1.34-4.12,3.12-4.14,3.07q-.4-1.15-1.64-2.92c-4.33.14-8.49.29-12.41.46C28.9,2.14,14.01,3.55,5.32,13.43c-2.06,2.34,1.94,5.59,1.76,10.34,1.62.25,4.68.2,4.77.82.11.7-5.12.98-6.82,1.32,0,0-2.4,1.44-5.03,3.14.03,5.39,7.95,8.01,9.2,12.34,3.57.12,14.23.57,10.64.54-5.43-.05-13.76,4.14-17.03,4.64.7,1.96,8.52.3,9.32,1.09,2.68,2.66,6.28,5.4,23.02,6.48,5.49.36,8.98,3.24,14.57,3.97.52-.67,14.37-3.26,14.41-3.23,2.24,1.79,4.39.33,6.59,2.69,22.75.3,38.86.81,59.66.32,3.24-1.24,10.01-2.5,12.52-3.47.09-.03-.87-3.28-.8-3.25,1.88,1.01,2.8,2.19,3.68,3.36,10.6-.28,19.48-.58,25.44-.82,8.07-.32,12.5,2.46,19.81.8.65-.15,8.38-2.79,8.98-2.96,2.96-.86,6.79-2.51,8.39-5.56-7.75-.28-8.33-.81-8.17-.83,6.61-.76,6.18-.55,8.38-.9Z"/>
            <path class="cls-7" d="M208.62,44.26c1.04-3.82.12-10.67-.03-15.06-2.35-.48-7.47-1.54-7.37-1.56,3.03-.55,4.85-.77,7.4-1.27-.41-4.44-1.64-10.61-3.05-14.05-4.81.17-8.69.12-8.56.09,4.03-1.02,3.9-.8,8.26-1.64-1.1-1.83-3.6-4.75-5.03-5.52-3.44-1.85-9.81-2.63-15.26-3.04-7.05-.53-18.66-.92-26.98-1.25-1.71,2.07-4.76,3.12-4.8,3.08-2.08-1.76-2.31-2.77-2.56-3.5-8.57-.25-17.49-.41-26.47-.49-.6.39-2.29,1.18-2.32,1.11-.13-.38-.24-.76-.38-1.14-16.71-.12-36.45.13-51.63.5-3.12,1.34-4.12,3.12-4.14,3.07q-.4-1.15-1.64-2.92c-4.33.14-8.49.29-12.41.46C28.9,2.14,14.01,3.55,5.32,13.43c-2.06,2.34,1.94,5.59,1.76,10.34,1.62.25,4.68.2,4.77.82.11.7-5.12.98-6.82,1.32,0,0-2.4,1.44-5.03,3.14.03,5.39,7.95,8.01,9.2,12.34,3.57.12,14.23.57,10.64.54-5.43-.05-13.76,4.14-17.03,4.64.7,1.96,8.52.3,9.32,1.09,2.68,2.66,6.28,5.4,23.02,6.48,5.49.36,8.98,3.24,14.57,3.97.52-.67,14.37-3.26,14.41-3.23,2.24,1.79,4.39.33,6.59,2.69,22.75.3,38.86.81,59.66.32,3.24-1.24,10.01-2.5,12.52-3.47.09-.03-.87-3.28-.8-3.25,1.88,1.01,2.8,2.19,3.68,3.36,10.6-.28,19.48-.58,25.44-.82,8.07-.32,12.5,2.46,19.81.8.65-.15,8.38-2.79,8.98-2.96,2.96-.86,6.79-2.51,8.39-5.56-7.75-.28-8.33-.81-8.17-.83,6.61-.76,6.18-.55,8.38-.9Z"/>
            <g class="cls-3">
              <path class="cls-7" d="M169.18,13.27c10.44-1.72,18.47-4.78,27.76-7.1,1.13-.28,2.31-.54,3.51-.78-.07-.05-.15-.09-.22-.13-1.2-.65-2.76-1.16-4.5-1.57-9.04,3.14-18.68,6.08-26.55,9.59Z"/>
              <path class="cls-7" d="M155.06,10.77c1.63-.64,3.3-1.26,4.96-1.89,3.72-1.42,7.5-2.82,11.35-4.19,2.74-.98,5.59-1.89,8.51-2.79-2.58-.14-5.4-.27-8.28-.39-7.99,3.35-16.08,6.69-20.92,10.73,1.66-.4,3.04-.92,4.38-1.45Z"/>
              <path class="cls-7" d="M81.89,7.95c3.14-1.12,6.24-2.26,9.44-3.36,2.55-.88,5.11-1.8,7.99-2.55,2.67-.69,5.41-1.35,8.12-2.03-5.18.02-10.45.06-15.61.12-10.96,4.24-21.69,8.6-29.15,13.68,7.13-1.64,13.27-3.75,19.21-5.87Z"/>
              <path class="cls-7" d="M26.06,13.02c4.18-.19,8.35-.4,12.43-.73,4.62-3.79,9.36-7.56,14.78-11.22-.54.02-1.09.05-1.63.07-2.33.1-4.57.21-6.73.33-4.16,2.37-8.29,4.74-12.21,7.16-2.34,1.44-4.5,2.91-6.65,4.38Z"/>
              <path class="cls-7" d="M189.85,43.09c6.68-.2,12.79-1.21,19.2-1.84.02-.34.03-.69.04-1.04-.85.11-1.69.23-2.53.35-5.62.8-11.09,1.73-16.71,2.53Z"/>
              <path class="cls-7" d="M175,28.1c3.87.27,8.2-.56,11.44-1.19,3.71-.72,7.21-1.56,10.88-2.3,3.43-.69,7.15-1.23,10.86-1.76-.15-.95-.32-1.92-.51-2.88-3.48.72-6.92,1.46-10.28,2.24-7.61,1.76-16.95,3.24-22.39,5.9Z"/>
              <path class="cls-7" d="M177.03,53c-1.11.23-2.16.46-3.16.71,6.48.26,10.69,2.27,17.17.79.65-.15,8.38-2.79,8.98-2.96,1.91-.56,4.18-1.44,5.98-2.82-10.01,1.14-19.9,2.43-28.98,4.28Z"/>
              <path class="cls-7" d="M172.53,40.16c-1.53.42-3.85.92-3.71,1.7.12.63.48,1.25.56,1.88,9.84-2.05,20.3-3.6,30.91-5.1,2.94-.42,5.86-.86,8.77-1.3-.06-1.47-.16-2.98-.26-4.4-6.45,1.09-12.91,2.17-19.19,3.37-5.94,1.14-11.77,2.38-17.09,3.85Z"/>
            </g>
            <g class="cls-6">
              <path class="cls-7" d="M112.83,5.81l4.32-1.28-.02-1.31,5.06-2.15h0c-.2.08-.33.13-.33.11-.13-.38-.24-.76-.38-1.14l-7.04,3.16-1.59,2.62Z"/>
              <path class="cls-7" d="M143,8.38c1.68,2.37,4.94,3.83,4.94,3.83l8.88-5.61-2.09-2.52s2.85-2.1,3.27-3.12c-1.71,2.07-4.76,3.12-4.8,3.08-2.08-1.76-2.31-2.77-2.56-3.5l-7.04,3.16s-2.27,2.31-.6,4.68Z"/>
              <path class="cls-7" d="M174.54,16.5l23.99-1.02,7.04-3.16c-4.81.17-8.69.12-8.56.09l-4.42-.21-18.04,4.29Z"/>
              <path class="cls-7" d="M199.48,27.07l-9.81,2.16,10.23,1.78,1.61-.29,7.07-1.52c-2.35-.48-7.47-1.54-7.37-1.56.12-.02.22-.04.34-.06h0l-2.07-.51Z"/>
              <path class="cls-7" d="M200.24,45.16l-3.27-.57-22.29,2.69,15.84,1.96,7.86-1.03,10.03-2.22c-7.75-.28-8.33-.81-8.17-.83Z"/>
              <path class="cls-7" d="M62.21,10.07l4.61-5.32-1.13-1.16q-.4-1.15-1.64-2.92l-7.04,3.16s.5,4.42,5.2,6.23Z"/>
            </g>
            <path class="cls-2" d="M200.24,45.16c1.04-3.82,1.43-10.05,1.28-14.44-2.35-.48-7.47-1.33-7.39-1.35,2.11-.72,4.64-1.24,7.19-1.74-.42-4.44-1.38-8.71-2.79-12.15-4.81.17-14.45-.37-14.32-.4,4.03-1.02,8.44-1.83,12.8-2.67-1.1-1.83-2.38-3.23-3.81-4-3.44-1.85-9.81-2.63-15.26-3.04-7.05-.53-14.89-.96-23.2-1.29-1.71,2.07-7.53,6.09-7.57,6.05-2.08-1.76-3.31-5.71-3.56-6.43-8.57-.25-17.49-.41-26.48-.49-.6.39-2.29,1.18-2.32,1.11-.13-.38-.24-.76-.38-1.14-16.71-.12-33.55.04-48.73.41-.79,1.78-3.23,5.35-3.32,5.3-3.06-1.5-4.12-3.29-5.35-5.06-4.33.14-8.49.29-12.41.46C21.86,5.3,11.92,5.72,3.23,15.61,1.17,17.95.22,22.18.04,26.93c1.62.25,3.22.52,4.78.82.1.02-3.09.95-4.79,1.3,0,0-.02,0-.02,0,.03,5.39.91,11.17,2.16,15.5,3.57.12,7.15.24,10.64.54.19.02-6.72.98-9.99,1.48.7,1.96,1.48,3.45,2.28,4.24,2.68,2.66,6.28,5.4,23.02,6.48,5.49.36,15.03.62,21.61.82.52-.67,4.09-5.04,4.14-5,2.24,1.79,2.04,2.96,4.24,5.31,22.75.3,51.49-.05,72.29-.53,1.17-1.25,1.87-2.6,4.38-3.58.09-.03.24-.02.3.01,1.88,1.01,2.79,2.19,3.68,3.36,10.6-.28,19.48-.58,25.44-.82,8.79-.35,20.03-.37,27.4-2.52,2.96-.86,5.2-3.1,6.79-6.14-7.75-.28-18.6-1.21-18.43-1.23,6.61-.76,18.1-1.47,20.29-1.82Z"/>
            <g class="cls-3">
              <path class="cls-9" d="M198.38,48.21c-3.3-.11-6.57-.31-9.82-.52-1.63-.11-3.25-.23-4.87-.35l-2.42-.19c-.4-.03-.8-.07-1.21-.11h-.08s-.04-.01-.04-.01h-.03s-.02,0-.02,0c.03-.02-.07.04,0-.07.11-.02.11-.01.18-.02l.3-.03.59-.06c.79-.08,1.58-.18,2.38-.25l2.4-.23c1.61-.14,3.22-.28,4.83-.41l4.83-.4c.8-.07,1.61-.13,2.4-.21l1.19-.11,1.14-.14-.14.07.33-1.8c.1-.6.25-1.2.3-1.8l.17-1.8.09-.9c.02-.3.07-.6.08-.9l.16-3.61-.04-3.61.21.12c-1.22-.24-2.5-.47-3.77-.69l-1.92-.34-.96-.17-.48-.09c-.09-.02-.15-.03-.28-.06l-.07-.02h-.02s-.07-.04-.09-.06c-.06-.05-.02-.12.04-.15.01-.01.09-.04.07-.03h0s0,0,0,0l.05-.02.1-.03.8-.25c.27-.08.52-.17.82-.24.59-.15,1.18-.3,1.78-.45l1.83-.4,1.86-.38-.24.15-.41-3.04c-.07-.51-.19-1.01-.29-1.52l-.31-1.52c-.09-.51-.27-1.01-.4-1.52l-.42-1.51c-.13-.51-.35-1.01-.52-1.51l-.54-1.51.63.17c-1.26.04-2.51.04-3.74.03-1.24-.01-2.47-.05-3.69-.09-1.23-.04-2.45-.09-3.66-.14l-1.83-.09-.92-.05-.47-.03h-.14s-.11-.02-.11-.02h-.02s-.05-.01-.08-.02c-.02,0-.05-.01-.07-.02.14.09-.53-.19-.04-.32l.07-.02h.01s.19-.05.19-.05l1.52-.36c.51-.12,1-.24,1.52-.36l3.17-.67c2.13-.42,4.27-.84,6.41-1.25l-.3.23c-.47-.76-.99-1.51-1.66-2.24-.33-.37-.71-.72-1.15-1.07-.45-.35-.97-.65-1.66-.96-.64-.28-1.41-.55-2.23-.8-.84-.24-1.73-.45-2.67-.64-1.89-.37-3.94-.65-6.06-.87-1.05-.11-2.14-.2-3.19-.28l-3.3-.21-6.6-.42c-1.1-.08-2.2-.12-3.31-.18l-3.31-.16-6.63-.31.72-.17c-.45.54-1.01,1.06-1.6,1.57-.59.51-1.22,1.02-1.87,1.52-.65.5-1.31,1-2,1.5l-1.04.74c-.36.25-.68.48-1.11.75l-.05.02-.06.02c-.16.2-1.53-.1-1.11-.08h0s-.02-.03-.02-.03l-.05-.05-.1-.1-.19-.19-.38-.39-.6-.82c-.19-.27-.33-.54-.49-.81-.17-.27-.29-.54-.43-.82-.14-.27-.27-.54-.38-.82-.12-.27-.24-.55-.34-.82-.21-.55-.41-1.09-.59-1.64l.58.19-13.21-.31-13.23-.18.55-.11c-.32.2-.66.38-1.01.56-.36.18-.71.35-1.13.52-.06.02-.11.04-.19.07-.02,0-.05.02-.08.03,0,0-.07.02-.11.02.04,0-.3.07-.61,0-.11-.02-.22-.07-.26-.11-.02-.02-.04-.05-.04-.05h0s0,0,0,0h0s0-.03,0-.03l-.05-.16-.1-.31-.21-.63.58.18-12.18-.04-12.18.05c-1.01,0-2.03.02-3.04.03l-3.04.03-6.09.07c-1.01.01-2.03.04-3.04.05l-3.04.06-6.08.12.45-.14c-.42.9-.97,1.79-1.53,2.67l-.87,1.32-.46.66-.24.33-.13.17-.07.08-.04.04-.03.03-.02.02s0,0-.03.02l-.03.02c-.06.02.07-.01-.14.04-.44.07-.69-.1-.59-.05h0s0,0,0,0h-.02s-.03-.03-.03-.03l-.07-.04-.13-.07-.26-.14-.52-.29-.92-.62-.77-.63-.65-.65-.56-.66-.5-.66-.91-1.32.41.1-8.71.32c-1.45.05-2.91.1-4.36.16l-4.35.19c-2.9.13-5.79.27-8.65.47-1.43.1-2.84.22-4.24.35-1.39.14-2.77.31-4.11.5-1.33.2-2.62.44-3.84.71-1.21.28-2.36.59-3.43.93-1.04.35-2.04.72-2.92,1.13-.45.2-.86.41-1.28.62-.39.21-.81.42-1.16.64-.37.22-.74.44-1.07.66-.35.22-.68.45-.99.68-.33.23-.63.46-.92.69-.3.23-.58.47-.85.7-.28.23-.54.47-.8.71-.26.24-.52.48-.75.72-.49.48-.94.97-1.38,1.45.43-.49.86-.97,1.34-1.46.22-.24.48-.48.72-.72.24-.24.5-.48.77-.72.26-.24.53-.47.83-.71.29-.24.58-.47.9-.7.3-.23.62-.46.97-.69.32-.23.69-.45,1.05-.67.35-.22.77-.43,1.15-.65.42-.21.82-.42,1.27-.63.87-.41,1.87-.79,2.91-1.15,1.07-.35,2.22-.67,3.44-.96,1.23-.28,2.54-.52,3.88-.73,1.35-.21,2.74-.38,4.14-.53,1.41-.14,2.84-.27,4.27-.37,2.87-.21,5.77-.36,8.67-.51l4.35-.2c1.45-.06,2.91-.11,4.36-.17l8.73-.34h.33s.08.1.08.1l.93,1.32.51.65.57.64.65.63.76.61.88.58.53.28.26.14.13.07.07.04.03.02h.02s0,.01,0,.01h0c.11.05-.14-.12-.58-.05-.2.06-.07.02-.13.04h-.03s-.01.02-.01.02c0,0,0,0,0,0h.01s.03-.05.03-.05l.06-.08.12-.16.23-.33.45-.66.85-1.32c.54-.88,1.07-1.77,1.46-2.65l.06-.14h.39s6.09-.14,6.09-.14l3.04-.07c1.02-.02,2.03-.05,3.05-.06l6.1-.08,3.05-.04c1.02-.01,2.03-.03,3.05-.04l12.2-.06,12.2.03h.52s.06.18.06.18l.21.63.11.31.05.16v.02s.01,0,.01,0h0s-.01-.02-.03-.04c-.04-.04-.15-.08-.26-.1-.3-.07-.62,0-.56,0-.02,0-.07.02-.06.01,0,0-.01,0,0,0,.03,0,.07-.03.11-.04.36-.15.72-.32,1.06-.49.33-.17.67-.34.93-.51l.18-.12h.37s13.27.18,13.27.18l13.25.3h.51s.06.19.06.19c.18.55.38,1.09.59,1.63.1.27.23.54.34.81.11.27.24.54.38.81.14.27.26.54.43.8.16.26.31.54.49.8l.57.78.38.39.19.19.1.1.05.05.02.02h0c.42.03-.94-.27-1.09-.08-.01,0-.03.01-.04.02-.02.01,0,0,0,0,.34-.21.71-.47,1.05-.71l1.03-.74c.67-.49,1.33-.99,1.97-1.49.64-.5,1.25-1,1.83-1.51.57-.51,1.13-1.02,1.56-1.53l.16-.19.55.03,6.67.32,3.34.16c1.11.05,2.23.1,3.32.18l6.6.43,3.3.21c1.14.09,2.22.18,3.31.29,2.18.22,4.32.52,6.32.91,1,.2,1.95.43,2.84.69.88.26,1.7.55,2.44.88.67.3,1.33.68,1.77,1.04.47.37.86.74,1.2,1.12.68.75,1.21,1.52,1.67,2.29l.09.15-.39.07c-2.15.41-4.29.82-6.4,1.24l-3.1.65c-.51.11-1.01.24-1.52.35l-1.52.36-.19.04h-.01s0,0,0,0c.03,0-.07.02.06-.02.49-.13-.18-.41-.04-.32-.02,0-.04,0-.06-.01-.02,0-.04,0-.06-.01h0s-.01,0,0,0h.09s.43.04.43.04l.89.05,1.8.09c1.2.06,2.41.11,3.62.15,1.21.04,2.42.07,3.63.09,1.2.01,2.41.02,3.58-.02l.56-.02.07.19.54,1.52c.17.51.39,1.01.51,1.52l.39,1.52c.12.51.29,1.01.37,1.52l.28,1.52c.09.51.2,1.02.26,1.52l.35,3.05v.1s-.24.05-.24.05l-1.85.37-1.8.39c-.57.14-1.13.28-1.7.42-.28.07-.54.16-.81.24l-.81.24-.1.03h-.05s0,.02,0,.02h0s.06-.02.07-.03c.07-.03.11-.1.05-.14-.03-.02-.06-.04-.09-.05h-.02s-.02-.01-.02-.01l.18.04.46.09.95.17,1.91.34c1.27.23,2.54.46,3.8.71l.21.04v.08s-.03,3.62-.03,3.62l-.23,3.61c-.01.3-.07.6-.1.9l-.11.9-.24,1.81c-.07.6-.25,1.2-.37,1.8l-.4,1.8v.05s-.14.02-.14.02l-1.21.14-1.21.11c-.8.08-1.62.14-2.42.2l-4.85.38c-1.62.12-3.23.26-4.84.39l-2.4.21c-.8.07-1.59.16-2.39.24l-.6.06-.3.03s-.13.01-.12.01c.06-.11-.03-.05,0-.06h0s.01,0,.01,0h.03s.07.01.07.01c.39.04.8.08,1.19.11l2.42.2c1.61.13,3.23.25,4.85.37,3.24.23,6.51.43,9.8.56Z"/>
            </g>
          </g>
          <g class="cls-8">
            <path class="cls-11" d="M147.16,10.13s2.02-1.34,4.02-2.89c-1.82.41-3.62.84-5.4,1.27.41.62.87,1.19,1.38,1.62Z"/>
            <path class="cls-11" d="M44.88,47.71c6.64-2.13,13.04-4.31,19.25-6.59,5.12-1.87,10.44-4.12,12.11-6.7,3.5-5.41-32.17-1.42-38.08-.82-4.41.45-8.76.98-13.24,1.33-4.31.34-8.61.68-12.84,1.14-3.96.43-7.75,1.04-11.38,1.76.01.1.03.2.04.3,3.08-.57,6.26-1.06,9.58-1.44,7.19-.82,14.8-1.16,22.09-1.87,7.57-.74,15.15-1.54,22.94-1.96,3.7-.2,7.48-.29,11.21-.37,4.08-.08,7.7.49,7.66,2.08-.03,1.44-3.54,3.03-5.94,4.13-2.25,1.03-4.88,1.92-7.37,2.88-5.46,2.09-11.52,4-17.49,5.91-6.1,1.95-12.95,3.57-19.47,5.34-3.19.87-6.58,1.76-10.09,2.56.15.04.31.08.47.12,3.28-.71,6.51-1.43,9.61-2.24,7.1-1.83,14.41-3.47,20.93-5.56Z"/>
            <path class="cls-11" d="M28.4,47.76c5.1-1.33,9.86-2.69,14.14-4.33,1.99-.77,3.67-1.6,5.52-2.4,1.19-.52,2.59-1.25,2.51-1.95-.41-3.76-21.54-.97-26.5-.53-6.14.54-12.32,1.31-18.13,2.18-1.56.23-3.06.51-4.53.8.03.15.06.29.09.44,4.68-.84,9.77-1.42,14.78-1.95,4.75-.5,9.52-.97,14.3-1.44,4.75-.46,10.73-.94,15.44-.2,5.92.92-1.31,3.47-3.78,4.46-4.14,1.65-8.9,3-13.83,4.35-4.19,1.15-8.38,2.29-12.63,3.41-2.25.59-4.64,1.11-6.85,1.71-.19.05-.77.24-1.5.47.11.07.23.15.34.22,1.33-.36,2.72-.69,4.07-1,5.72-1.3,11.1-2.81,16.56-4.24Z"/>
            <path class="cls-11" d="M19.14,48.23c3.22-1.08,6.07-2.31,8.69-3.57,1.4-.67,4.68-1.98,4.63-2.91-.04-.69-1.5-.88-3.35-.82-3.61.13-7.27.49-10.8.78-6.15.5-11.06,1.65-16.19,2.73.01.04.02.08.03.12.29,0,.57.02.86.03,2.32-.51,4.58-1.04,7.09-1.46,3.46-.58,7.26-.84,11-1.1,2.47-.17,5.11-.44,7.65-.46,4.4-.03-.25,2-1.31,2.58-2.45,1.34-5.54,2.57-8.69,3.72-2.91,1.06-6.48,1.77-10.08,2.5-1.12.23-2.2.48-3.31.72.14.14.29.27.44.41,1.15-.28,2.31-.56,3.5-.8,3.56-.72,6.86-1.47,9.83-2.47Z"/>
            <path class="cls-11" d="M10.05,48.34c1.94-.73,4.11-1.57,5.06-2.52,1.1-1.11-2.75-.46-4.03-.22-2.45.45-4.81.91-6.99,1.52-.32.09-.65.19-.96.29.05.12.1.24.15.36.27-.08.54-.17.81-.24,1.6-.45,3.45-.83,5.26-1.17.42-.08,4.8-.84,4.22-.28-.74.71-2.68,1.4-4.14,1.95-1.44.55-3.16,1.31-5.04,1.91.08.13.16.25.25.36,2.06-.58,3.9-1.38,5.41-1.95Z"/>
            <path class="cls-11" d="M151.19,7.24c.23-.18.46-.36.68-.54-2.13.48-4.23.97-6.3,1.47.07.12.14.23.22.34,1.78-.43,3.58-.86,5.4-1.27Z"/>
            <path class="cls-11" d="M156.25,6.12c2.62-.55,5.28-1.08,7.94-1.61-.5-.03-1.01-.05-1.52-.08-2.05.41-4.09.82-6.11,1.24-1.58.33-3.15.67-4.69,1.02-.22.18-.45.36-.68.54,1.67-.38,3.35-.75,5.07-1.12Z"/>
            <path class="cls-11" d="M36.12,31.44c17.73-1.9,35.04-4.1,51.04-7.43,7.86-1.63,15.44-3.39,22.71-5.33,7.75-2.07,14.85-4.41,22.38-6.58,4.39-1.26,8.89-2.46,13.53-3.59-.07-.11-.15-.23-.22-.34-3.86.94-7.63,1.92-11.33,2.95-7.55,2.1-14.72,4.37-22.41,6.4-7.77,2.05-15.78,3.93-24.1,5.7-16.48,3.49-34.65,5.69-52.96,7.68-8.85.96-17.69,1.93-26.22,3.21-2.77.41-5.47.88-8.14,1.37.02.16.04.33.06.49,2.52-.43,5.05-.85,7.64-1.23,9.05-1.34,18.64-2.28,28.03-3.28Z"/>
            <path class="cls-11" d="M71.48,21.74c12.97-3.19,23.3-7.48,35.9-10.83,6.33-1.68,12.94-3.25,19.58-4.78,3.69-.85,7.5-1.67,11.12-2.58-.69-.02-1.38-.03-2.08-.05-9.11,2.23-18.61,4.27-27.61,6.57-12.75,3.25-23.26,7.43-35.93,10.72-12.42,3.23-27.88,5.05-41.78,7.36-10.17,1.69-20.43,3.29-30.52,5.03.01.13.02.26.03.39,9.93-1.6,20.05-3.06,29.96-4.67,13.8-2.26,28.8-4.09,41.31-7.17Z"/>
            <path class="cls-11" d="M61.03,19.43c12.71-2.84,24.3-6.25,36.63-9.28,8.98-2.21,17.85-4.49,26.52-6.86-.54,0-1.09-.01-1.63-.02-8.24,2.11-16.53,4.2-24.88,6.25-12.34,3.03-24.01,6.38-36.63,9.27-12.8,2.93-26.69,4.85-40.64,6.97-6.83,1.04-13.08,2.42-19.49,3.74-.3.06-.6.12-.9.18,0,.15,0,.3,0,.45,7.16-1.51,14.49-2.92,22.17-4.02,13.5-1.93,26.52-3.93,38.84-6.69Z"/>
            <path class="cls-11" d="M21.65,23.04c10.5-1.89,20.82-3.76,29.85-6.44,9.5-2.82,18.1-5.96,28.42-8.45,7.44-1.79,15.43-3.31,23.06-5-.79,0-1.57,0-2.35,0-6.23,1.3-12.58,2.56-18.71,3.91-9.75,2.15-17.97,4.92-26.37,7.64-4.48,1.45-9.27,2.91-14.54,4-5.42,1.13-11.05,2.14-16.59,3.19-5.28,1.01-10.69,1.93-16.06,2.88-2.63.46-5.22.95-7.75,1.48-.18.04-.36.08-.55.12,0,.13-.01.26-.02.39,1.48-.28,2.97-.55,4.48-.81,5.71-.96,11.49-1.89,17.13-2.9Z"/>
            <path class="cls-11" d="M43.71,13.96c14.78-3.15,28.25-6.94,41.75-10.71-.53,0-1.06.01-1.59.02-4.73,1.21-9.42,2.44-13.95,3.75-8.24,2.38-17.6,4.49-26.73,6.43-9.3,1.98-19.77,3.16-29.99,4.42-4.25.52-8.27,1.18-12.11,1.94-.04.14-.08.28-.12.42,4.66-.93,9.93-1.48,15-2.06,9.63-1.1,19.07-2.35,27.74-4.2Z"/>
            <path class="cls-11" d="M18.64,15.84c8.7-1.45,17.39-3.27,25.16-5.26,5.48-1.4,9.87-3.17,14.59-4.83-.15-.18-.29-.37-.42-.55-4.95,1.69-9.48,3.51-15.14,4.96-7.96,2.04-17,3.86-25.92,5.34-4.85.81-10.06,1.45-15.03,2.22-.09.18-.17.37-.24.56,1.3-.16,2.61-.32,3.91-.49,4.45-.58,8.81-1.24,13.1-1.95Z"/>
            <path class="cls-11" d="M27.26,11.38c8.88-2.38,17.77-4.8,26.12-7.42-.43.01-.85.03-1.27.05-8.63,2.55-17.77,4.93-26.75,7.29-6.5,1.71-13.49,2.91-20.96,4.01-.35.05-.7.11-1.05.16-.04.05-.08.09-.12.14-.15.17-.3.36-.44.55,2.08-.33,4.24-.61,6.32-.91,6.57-.95,12.53-2.36,18.15-3.87Z"/>
            <path class="cls-11" d="M26.91,7.91c4.12-.99,7.9-2.17,11.71-3.34-.65.03-1.3.06-1.93.1-2.57.75-5.16,1.48-7.75,2.22-4.19,1.2-9.06,2.16-13.59,3.19-2.97.68-5.82,1.42-8.68,2.15-.15.12-.29.25-.44.37,2.33-.56,4.63-1.13,7.03-1.66,4.57-1,9.19-1.97,13.65-3.04Z"/>
            <path class="cls-11" d="M162.56,10.37c-4.24.84-8.22,1.84-12.48,2.68-4.75.93-9.55,1.83-14.25,2.79-4.34.89-8.58,1.84-12.93,2.72-4.29.87-8.78,1.62-12.99,2.53-4.09.89-8.03,1.87-12.06,2.79-3.95.9-7.79,1.86-11.12,3.03-.98.35-3.12.99-3.13,1.54-.01,1,4.98.24,6.09.08,9.2-1.28,17.44-3.3,26.7-4.57,18.75-2.58,37.59-5.18,56.11-7.98,6.18-.93,12.74-1.73,18.4-3.02,1.94-.44,3.68-.99,5.48-1.5-.14-.2-.29-.4-.43-.59-1.7.47-3.28.99-5.04,1.43-2.4.6-5.19,1.01-7.89,1.42-9.47,1.42-18.96,2.81-28.48,4.19-9.33,1.35-18.61,2.7-27.84,4.13-4.33.67-8.87,1.13-13.22,1.79-4.73.72-9.28,1.58-13.79,2.44-4.09.78-8.78,1.99-13.58,2.09-2.01.04-.29-.49-.14-.55.86-.37,1.7-.73,2.7-1.05,2.22-.72,4.77-1.32,7.26-1.92,8.6-2.06,17.48-3.86,26.53-5.67,9.11-1.81,18.02-3.74,27.18-5.52,8.68-1.69,17.24-3.59,25.11-5.71,2.27-.61,4.42-1.27,6.73-1.87.36-.09.72-.18,1.09-.27-.17-.02-.34-.04-.51-.06-1.8.4-3.6.8-5.3,1.25-4.56,1.22-9.21,2.37-14.21,3.36Z"/>
            <path class="cls-11" d="M172.49,9.79c-3.17.8-5.9,1.93-9.2,2.65-2.28.5-3.95,1.15-4.92,2.02-.08.07-.21.19,0,.25,2.03.57,6.63-.46,8.42-.77,4.95-.86,9.75-1.88,14.79-2.67,4.04-.63,7.56-1.46,10.88-2.47.31-.1.63-.19.94-.28-.07-.04-.14-.08-.2-.12-.16-.08-.33-.16-.49-.24-2.39.72-4.87,1.41-7.66,1.95-3.59.69-7.29,1.33-10.92,2-3.76.69-7.65,1.53-11.71,1.98-4.7.52-.21-.92,1.63-1.32,1.61-.35,3.16-1,4.63-1.43,3.33-.96,6.8-1.85,10.29-2.74,2.76-.7,5.61-1.36,8.37-2.07-.23-.05-.46-.09-.69-.13-1.21.26-2.38.49-3.36.73-3.64.86-7.21,1.76-10.77,2.66Z"/>
            <path class="cls-11" d="M64.73,47.86c7.35-2.41,14.97-4.71,22.35-7.11,7.55-2.46,14.75-5.03,22.37-7.46,7.28-2.33,14.36-4.61,22.74-6.46,8.45-1.86,17.13-3.54,25.99-5.15,4.47-.82,9.27-1.4,13.73-2.22,4.44-.82,9.03-1.54,13.54-2.31,3.07-.53,6.11-1.08,9.15-1.64-.87-.01-1.77-.03-2.65-.06-2.01.35-4.02.7-6.03,1.05-9.01,1.54-18.25,2.93-27.24,4.48-16.5,2.85-32.74,6.17-46.01,10.67-14.66,4.97-29.7,9.8-44.8,14.61-7.27,2.31-14.27,4.73-21.73,6.97-4.76,1.43-9.46,2.96-14.58,4.27.52.03,1.05.05,1.6.07,3.53-.96,6.88-2.02,10.32-3.02,7.29-2.14,14.32-4.41,21.26-6.68Z"/>
            <path class="cls-11" d="M122.71,39.42c8.36-1.32,16.52-2.78,24.79-4.15,8.64-1.44,17.52-2.7,26.24-4.08,7.91-1.25,15.37-2.6,22.78-4.2,1.53-.33,3.08-.66,4.63-.98-.03-.24-.06-.47-.09-.71-2.82.6-5.63,1.22-8.48,1.81-7.86,1.64-15.94,2.92-24.29,4.21-17.01,2.63-33.66,5.49-50.54,8.22-8.01,1.29-16.02,2.61-23.75,4.1-7.55,1.45-14.68,3.18-21.72,4.9-6.3,1.55-11.97,3.32-17.91,5.01.13.12.25.23.36.35,6.58-1.97,13.43-3.81,20.58-5.51,14.99-3.58,30.88-6.36,47.4-8.96Z"/>
            <path class="cls-11" d="M51.42,54.37c-3.21.88-6.14,1.9-9.16,2.86-.63.2-1.27.4-1.9.6.25,0,.51.02.76.03,3.76-1.16,7.8-2.24,11.55-3.35.19-.23.37-.44.52-.63-.59.17-1.18.33-1.78.5Z"/>
            <path class="cls-11" d="M161.91,24.13c-3.82.76-7.66,1.48-11.39,2.3-4.29.94-8.21,2.17-12.12,3.29-3.17.91-5.99,1.92-9,2.88-1.54.49-3.34.95-3.98,1.67-.75.84,4.32.3,5.02.24,4.69-.41,9.08-1.25,13.51-1.91,9.75-1.45,19.34-3.1,28.77-4.79,9.33-1.68,18.32-3.57,27.45-5.38.13-.03.26-.05.39-.07-.03-.17-.07-.34-.1-.5-1.41.28-2.81.56-4.22.84-7.64,1.54-15.27,3.08-23.1,4.5-7.92,1.44-16.02,2.78-24.14,4.07-3.78.61-7.62,1.17-11.44,1.75-2.07.32-4.1.63-6.3.82-1.64.14-5.24.35-2.67-.48,5.56-1.8,11.22-3.5,17.1-5.18,6.68-1.9,14.62-3.24,22.13-4.7,7.49-1.45,15.16-2.76,22.74-4.16,2.94-.54,5.85-1.11,8.78-1.67-.05-.14-.09-.28-.14-.42-3.47.64-6.91,1.3-10.39,1.92-9.06,1.61-18.05,3.2-26.9,4.96Z"/>
            <path class="cls-11" d="M88.47,50.2c14.6-1.84,27.89-4.44,41.84-6.78,7.11-1.19,14.12-2.32,20.92-3.73,6.97-1.44,13.66-3.03,20.58-4.49,8.65-1.83,17.77-3.56,27.24-4.95-.48-.09-.97-.17-1.45-.26-7.99,1.16-15.66,2.6-23.24,4.11-7.01,1.39-13.61,3.02-20.53,4.47-7.5,1.57-15.16,2.87-23.05,4.18-7.33,1.21-14.42,2.59-21.67,3.85-7.23,1.26-14.66,2.22-22.23,3.21-11.28,1.47-21.4,3.72-30.47,6.42.08.12.16.25.25.38,2.85-.86,6-1.62,9.07-2.37,7.02-1.72,14.68-3.03,22.74-4.05Z"/>
            <path class="cls-11" d="M91.68,53.31c15.56-2.11,31.11-4.27,46-6.91,15.25-2.71,30.69-5.16,46.59-7.36,6.42-.89,11.73-1.98,17.21-3.32.01-.21.02-.43.03-.64-4.87,1.2-9.82,2.28-15.58,3.06-16.32,2.22-32.11,4.75-47.72,7.51-15.28,2.71-31.21,4.93-47.16,7.11-7.75,1.06-14.75,2.69-21.95,4.13-2.3.46-4.49,1-6.59,1.58.57,0,1.13.01,1.71.01,1.79-.45,3.63-.87,5.56-1.25,7.23-1.4,14.19-2.89,21.92-3.93Z"/>
            <path class="cls-11" d="M117.94,52.05c6.72-.83,13.44-1.65,20.07-2.57,13.27-1.84,26.03-4.06,38.9-6.21,8.17-1.37,16.26-2.78,24.34-4.21.01-.15.03-.29.04-.44-7.58,1.26-15.16,2.52-22.73,3.79-13.24,2.21-26.44,4.46-40.06,6.38-6.82.96-13.77,1.8-20.7,2.66-6.45.8-12.29,1.8-18.15,3.05-5.86,1.25-11.72,2.41-17.91,3.44-1.32.22-2.73.41-4.15.6,1.31,0,2.62,0,3.94,0,5.83-.95,11.38-2.02,16.84-3.2,6.3-1.36,12.6-2.42,19.57-3.28Z"/>
            <path class="cls-11" d="M180.97,51c-9.99,1.15-20.08,2.18-29.98,3.43-4.51.57-8.99,1.16-13.48,1.75.19.2.37.4.54.6,9.1-1.19,18.23-2.35,27.53-3.34,10.74-1.14,21.44-2.32,31.91-3.74.18-.27.35-.54.51-.83-5.61.76-11.31,1.46-17.03,2.12Z"/>
            <path class="cls-11" d="M122.94,58.06c2.22-.04,4.37-.09,6.46-.14.37-.05.75-.1,1.12-.15.23-.25.44-.5.66-.76-2.73.35-5.48.7-8.23,1.04Z"/>
            <path class="cls-11" d="M105.96,57.27c19.62-3.22,39.39-6.32,58.9-9.62,8.55-1.44,17.11-2.88,25.79-4.23,3.44-.54,6.81-1.11,10.27-1.63.02-.17.05-.33.07-.5-4.15.59-8.19,1.26-12.29,1.9-9.82,1.52-19.49,3.17-29.17,4.79-9.71,1.63-19.51,3.18-29.31,4.75-9.77,1.56-19.84,3.01-29.29,4.8-1.69.32-3.4.62-5.12.92,1.24-.01,2.48-.02,3.72-.04,2.13-.39,4.26-.78,6.44-1.14Z"/>
            <path class="cls-11" d="M181.62,47.13c.27-.04.55-.08.82-.12,1.81-.26,3.61-.52,5.4-.79-2.83.24-5.65.49-7.91.75-.04,0,.59.07,1.68.16Z"/>
            <path class="cls-11" d="M180.42,46.87c-5.35.73-10.65,1.51-15.92,2.3-1.8.27-6.38.59-6.96,1.42-.61.87,3.43.6,4.76.52,5.83-.36,11.77-1.13,17.45-1.71,4.44-.45,8.85-.95,13.24-1.46-1.14-.07-2.28-.14-3.39-.21-.52.06-1.03.12-1.55.18-4.92.56-9.89,1.07-14.89,1.54-4.16.4-8.75,1.13-13.12,1.05-1.86-.04-1.08.03,0-.12.74-.1,1.47-.21,2.19-.33,2-.31,3.99-.63,5.98-.94,4.43-.7,8.92-1.35,13.41-1.99-1.09-.09-1.72-.15-1.68-.16,2.26-.26,5.08-.51,7.91-.75,2.97-.44,5.94-.88,8.93-1.29,1.2-.17,2.42-.32,3.63-.47.03-.11.05-.22.08-.33-.76.09-1.51.18-2.26.28-5.98.78-11.87,1.64-17.81,2.46Z"/>
            <path class="cls-11" d="M160.87,56.99c1.18-.04,2.3-.09,3.32-.13.65-.03,1.33-.05,2.01-.07,2.4-.39,4.82-.76,7.31-1.07,6.51-.83,12.95-1.72,19.41-2.59.53-.07,1.05-.14,1.58-.21.24-.17.47-.36.7-.55-6.15.77-12.28,1.56-18.41,2.35-5.4.69-10.66,1.48-15.91,2.29Z"/>
          </g>
          <path class="cls-1" d="M46.18,6.27s-25.35-.06-33.39,5.43c-8.04,5.49-15.07,14.95,6.3,14.07,21.37-.88,51.86-20.4,27.09-19.5Z"/>
          <path class="cls-1" d="M13.82,29.37s-7.22-.29-8.38,3.35c-.75,2.35-1.06,6.06,6.56,4.96,7.62-1.11,10.69-9.54,1.83-8.31Z"/>
        </g>
        <g>
          <path class="cls-12" d="M103.45,57.79c0,1.07-.87,1.94-1.94,1.94s-1.94-.87-1.94-1.94.87-1.94,1.94-1.94,1.94.87,1.94,1.94Z"/>
          <path class="cls-1" d="M101.38,57.12c0,.35-.29.64-.64.64s-.64-.29-.64-.64.29-.64.64-.64.64.29.64.64Z"/>
        </g>
        <g>
          <path class="cls-12" d="M103.45,11.57c0,1.07-.87,1.94-1.94,1.94s-1.94-.87-1.94-1.94.87-1.94,1.94-1.94,1.94.87,1.94,1.94Z"/>
          <path class="cls-1" d="M101.38,10.9c0,.35-.29.64-.64.64s-.64-.29-.64-.64.29-.64.64-.64.64.29.64.64Z"/>
        </g>
      </g>
    </g>
  </g>
</svg>